%TF.GenerationSoftware,KiCad,Pcbnew,8.0.5-8.0.5-0~ubuntu24.04.1*%
%TF.CreationDate,2024-09-16T18:32:16+02:00*%
%TF.ProjectId,Test_elec,54657374-5f65-46c6-9563-2e6b69636164,rev?*%
%TF.SameCoordinates,Original*%
%TF.FileFunction,Soldermask,Top*%
%TF.FilePolarity,Negative*%
%FSLAX46Y46*%
G04 Gerber Fmt 4.6, Leading zero omitted, Abs format (unit mm)*
G04 Created by KiCad (PCBNEW 8.0.5-8.0.5-0~ubuntu24.04.1) date 2024-09-16 18:32:16*
%MOMM*%
%LPD*%
G01*
G04 APERTURE LIST*
%ADD10O,2.000000X1.600000*%
%ADD11R,2.000000X2.000000*%
%ADD12C,2.000000*%
%ADD13C,1.600000*%
%ADD14O,1.600000X1.600000*%
%ADD15R,1.700000X1.700000*%
%ADD16O,1.700000X1.700000*%
%ADD17R,2.500000X2.500000*%
%ADD18C,2.500000*%
%ADD19R,1.800000X1.800000*%
%ADD20C,1.800000*%
G04 APERTURE END LIST*
D10*
%TO.C,U4*%
X180500000Y-50220000D03*
X180500000Y-52760000D03*
X180500000Y-55300000D03*
X180500000Y-57840000D03*
X180500000Y-60380000D03*
X180500000Y-62920000D03*
X180500000Y-65460000D03*
X180500000Y-68000000D03*
X157640000Y-68000000D03*
X157640000Y-65460000D03*
X157640000Y-62920000D03*
X157640000Y-60380000D03*
X157640000Y-57840000D03*
X157640000Y-55300000D03*
X157640000Y-52760000D03*
D11*
X157640000Y-50220000D03*
%TD*%
%TO.C,U3*%
X122000000Y-50000000D03*
D10*
X122000000Y-52540000D03*
X122000000Y-55080000D03*
X122000000Y-57620000D03*
X122000000Y-60160000D03*
X122000000Y-62700000D03*
X122000000Y-65240000D03*
X122000000Y-67780000D03*
X144860000Y-67780000D03*
X144860000Y-65240000D03*
X144860000Y-62700000D03*
X144860000Y-60160000D03*
X144860000Y-57620000D03*
X144860000Y-55080000D03*
X144860000Y-52540000D03*
X144860000Y-50000000D03*
%TD*%
D11*
%TO.C,U2*%
X122000000Y-92000000D03*
D10*
X122000000Y-94540000D03*
X122000000Y-97080000D03*
X122000000Y-99620000D03*
X122000000Y-102160000D03*
X122000000Y-104700000D03*
X122000000Y-107240000D03*
X122000000Y-109780000D03*
X144860000Y-109780000D03*
X144860000Y-107240000D03*
X144860000Y-104700000D03*
X144860000Y-102160000D03*
X144860000Y-99620000D03*
X144860000Y-97080000D03*
X144860000Y-94540000D03*
X144860000Y-92000000D03*
%TD*%
D11*
%TO.C,U1*%
X157640000Y-92220000D03*
D10*
X157640000Y-94760000D03*
X157640000Y-97300000D03*
X157640000Y-99840000D03*
X157640000Y-102380000D03*
X157640000Y-104920000D03*
X157640000Y-107460000D03*
X157640000Y-110000000D03*
X180500000Y-110000000D03*
X180500000Y-107460000D03*
X180500000Y-104920000D03*
X180500000Y-102380000D03*
X180500000Y-99840000D03*
X180500000Y-97300000D03*
X180500000Y-94760000D03*
X180500000Y-92220000D03*
%TD*%
D12*
%TO.C,SW1*%
X111000000Y-61500000D03*
X111000000Y-55000000D03*
X115500000Y-61500000D03*
X115500000Y-55000000D03*
%TD*%
D13*
%TO.C,R1*%
X185000000Y-43310000D03*
D14*
X185000000Y-35690000D03*
%TD*%
D15*
%TO.C,J7*%
X187000000Y-87500000D03*
D16*
X187000000Y-90040000D03*
X187000000Y-92580000D03*
X187000000Y-95120000D03*
X187000000Y-97660000D03*
%TD*%
D15*
%TO.C,J6*%
X187000000Y-68250000D03*
D16*
X187000000Y-70790000D03*
X187000000Y-73330000D03*
X187000000Y-75870000D03*
X187000000Y-78410000D03*
%TD*%
D15*
%TO.C,J5*%
X187000000Y-49000000D03*
D16*
X187000000Y-51540000D03*
X187000000Y-54080000D03*
X187000000Y-56620000D03*
X187000000Y-59160000D03*
%TD*%
D17*
%TO.C,J4*%
X199500000Y-32500000D03*
D18*
X199500000Y-37500000D03*
X199500000Y-42500000D03*
X199500000Y-47500000D03*
X199500000Y-52500000D03*
X199500000Y-57500000D03*
X199500000Y-62500000D03*
X199500000Y-67500000D03*
%TD*%
D17*
%TO.C,J3*%
X199500000Y-76000000D03*
D18*
X199500000Y-81000000D03*
X199500000Y-86000000D03*
X199500000Y-91000000D03*
X199500000Y-96000000D03*
X199500000Y-101000000D03*
X199500000Y-106000000D03*
X199500000Y-111000000D03*
%TD*%
D16*
%TO.C,J2*%
X115500000Y-109795000D03*
X115500000Y-107255000D03*
X115500000Y-104715000D03*
X115500000Y-102175000D03*
X115500000Y-99635000D03*
X115500000Y-97095000D03*
X115500000Y-94555000D03*
D15*
X115500000Y-92015000D03*
%TD*%
%TO.C,J1*%
X152000000Y-92015000D03*
D16*
X152000000Y-94555000D03*
X152000000Y-97095000D03*
X152000000Y-99635000D03*
X152000000Y-102175000D03*
X152000000Y-104715000D03*
X152000000Y-107255000D03*
X152000000Y-109795000D03*
%TD*%
D19*
%TO.C,D1*%
X186000000Y-31000000D03*
D20*
X183460000Y-31000000D03*
%TD*%
M02*
