M48
; DRILL file {KiCad 8.0.5-8.0.5-0~ubuntu24.04.1} date 2024-09-16T18:32:09+0200
; FORMAT={-:-/ absolute / inch / decimal}
; #@! TF.CreationDate,2024-09-16T18:32:09+02:00
; #@! TF.GenerationSoftware,Kicad,Pcbnew,8.0.5-8.0.5-0~ubuntu24.04.1
; #@! TF.FileFunction,Plated,1,2,PTH
FMAT,2
INCH
; #@! TA.AperFunction,Plated,PTH,ViaDrill
T1C0.0118
; #@! TA.AperFunction,Plated,PTH,ComponentDrill
T2C0.0315
; #@! TA.AperFunction,Plated,PTH,ComponentDrill
T3C0.0354
; #@! TA.AperFunction,Plated,PTH,ComponentDrill
T4C0.0394
; #@! TA.AperFunction,Plated,PTH,ComponentDrill
T5C0.0433
; #@! TA.AperFunction,Plated,PTH,ComponentDrill
T6C0.0512
%
G90
G05
T1
X6.1105Y-4.2025
X6.3796Y-3.7709
X6.9497Y-4.0701
T2
X7.2835Y-1.4051
X7.2835Y-1.7051
T3
X7.2228Y-1.2205
X7.3228Y-1.2205
T4
X4.5472Y-3.6226
X4.5472Y-3.7226
X4.5472Y-3.8226
X4.5472Y-3.9226
X4.5472Y-4.0226
X4.5472Y-4.1226
X4.5472Y-4.2226
X4.5472Y-4.3226
X4.8031Y-1.9685
X4.8031Y-2.0685
X4.8031Y-2.1685
X4.8031Y-2.2685
X4.8031Y-2.3685
X4.8031Y-2.4685
X4.8031Y-2.5685
X4.8031Y-2.6685
X4.8031Y-3.622
X4.8031Y-3.722
X4.8031Y-3.822
X4.8031Y-3.922
X4.8031Y-4.022
X4.8031Y-4.122
X4.8031Y-4.222
X4.8031Y-4.322
X5.7031Y-1.9685
X5.7031Y-2.0685
X5.7031Y-2.1685
X5.7031Y-2.2685
X5.7031Y-2.3685
X5.7031Y-2.4685
X5.7031Y-2.5685
X5.7031Y-2.6685
X5.7031Y-3.622
X5.7031Y-3.722
X5.7031Y-3.822
X5.7031Y-3.922
X5.7031Y-4.022
X5.7031Y-4.122
X5.7031Y-4.222
X5.7031Y-4.322
X5.9843Y-3.6226
X5.9843Y-3.7226
X5.9843Y-3.8226
X5.9843Y-3.9226
X5.9843Y-4.0226
X5.9843Y-4.1226
X5.9843Y-4.2226
X5.9843Y-4.3226
X6.2063Y-1.9772
X6.2063Y-2.0772
X6.2063Y-2.1772
X6.2063Y-2.2772
X6.2063Y-2.3772
X6.2063Y-2.4772
X6.2063Y-2.5772
X6.2063Y-2.6772
X6.2063Y-3.6307
X6.2063Y-3.7307
X6.2063Y-3.8307
X6.2063Y-3.9307
X6.2063Y-4.0307
X6.2063Y-4.1307
X6.2063Y-4.2307
X6.2063Y-4.3307
X7.1063Y-1.9772
X7.1063Y-2.0772
X7.1063Y-2.1772
X7.1063Y-2.2772
X7.1063Y-2.3772
X7.1063Y-2.4772
X7.1063Y-2.5772
X7.1063Y-2.6772
X7.1063Y-3.6307
X7.1063Y-3.7307
X7.1063Y-3.8307
X7.1063Y-3.9307
X7.1063Y-4.0307
X7.1063Y-4.1307
X7.1063Y-4.2307
X7.1063Y-4.3307
X7.3622Y-1.9291
X7.3622Y-2.0291
X7.3622Y-2.1291
X7.3622Y-2.2291
X7.3622Y-2.3291
X7.3622Y-2.687
X7.3622Y-2.787
X7.3622Y-2.887
X7.3622Y-2.987
X7.3622Y-3.087
X7.3622Y-3.4449
X7.3622Y-3.5449
X7.3622Y-3.6449
X7.3622Y-3.7449
X7.3622Y-3.8449
T5
X4.3701Y-2.1654
X4.3701Y-2.4213
X4.5472Y-2.1654
X4.5472Y-2.4213
T6
X7.8543Y-1.2795
X7.8543Y-1.4764
X7.8543Y-1.6732
X7.8543Y-1.8701
X7.8543Y-2.0669
X7.8543Y-2.2638
X7.8543Y-2.4606
X7.8543Y-2.6575
X7.8543Y-2.9921
X7.8543Y-3.189
X7.8543Y-3.3858
X7.8543Y-3.5827
X7.8543Y-3.7795
X7.8543Y-3.9764
X7.8543Y-4.1732
X7.8543Y-4.3701
M30
