%TF.GenerationSoftware,KiCad,Pcbnew,8.0.5-8.0.5-0~ubuntu24.04.1*%
%TF.CreationDate,2024-09-16T18:32:16+02:00*%
%TF.ProjectId,Test_elec,54657374-5f65-46c6-9563-2e6b69636164,rev?*%
%TF.SameCoordinates,Original*%
%TF.FileFunction,Copper,L2,Bot*%
%TF.FilePolarity,Positive*%
%FSLAX46Y46*%
G04 Gerber Fmt 4.6, Leading zero omitted, Abs format (unit mm)*
G04 Created by KiCad (PCBNEW 8.0.5-8.0.5-0~ubuntu24.04.1) date 2024-09-16 18:32:16*
%MOMM*%
%LPD*%
G01*
G04 APERTURE LIST*
%TA.AperFunction,ComponentPad*%
%ADD10O,2.000000X1.600000*%
%TD*%
%TA.AperFunction,ComponentPad*%
%ADD11R,2.000000X2.000000*%
%TD*%
%TA.AperFunction,ComponentPad*%
%ADD12C,2.000000*%
%TD*%
%TA.AperFunction,ComponentPad*%
%ADD13C,1.600000*%
%TD*%
%TA.AperFunction,ComponentPad*%
%ADD14O,1.600000X1.600000*%
%TD*%
%TA.AperFunction,ComponentPad*%
%ADD15R,1.700000X1.700000*%
%TD*%
%TA.AperFunction,ComponentPad*%
%ADD16O,1.700000X1.700000*%
%TD*%
%TA.AperFunction,ComponentPad*%
%ADD17R,2.500000X2.500000*%
%TD*%
%TA.AperFunction,ComponentPad*%
%ADD18C,2.500000*%
%TD*%
%TA.AperFunction,ComponentPad*%
%ADD19R,1.800000X1.800000*%
%TD*%
%TA.AperFunction,ComponentPad*%
%ADD20C,1.800000*%
%TD*%
%TA.AperFunction,ViaPad*%
%ADD21C,0.600000*%
%TD*%
%TA.AperFunction,Conductor*%
%ADD22C,0.200000*%
%TD*%
G04 APERTURE END LIST*
D10*
%TO.P,U4,16,TX*%
%TO.N,Net-(J1-Pin_1)*%
X180500000Y-50220000D03*
%TO.P,U4,15,RX*%
%TO.N,Net-(J1-Pin_2)*%
X180500000Y-52760000D03*
%TO.P,U4,14,SCL/D1*%
%TO.N,Net-(J1-Pin_3)*%
X180500000Y-55300000D03*
%TO.P,U4,13,SDA/D2*%
%TO.N,Net-(J1-Pin_4)*%
X180500000Y-57840000D03*
%TO.P,U4,12,D3*%
%TO.N,Net-(J1-Pin_5)*%
X180500000Y-60380000D03*
%TO.P,U4,11,D4*%
%TO.N,Net-(J1-Pin_6)*%
X180500000Y-62920000D03*
%TO.P,U4,10,GND*%
%TO.N,GND*%
X180500000Y-65460000D03*
%TO.P,U4,9,5V*%
%TO.N,Net-(J1-Pin_8)*%
X180500000Y-68000000D03*
%TO.P,U4,8,3V3*%
X157640000Y-68000000D03*
%TO.P,U4,7,CS/D8*%
%TO.N,Net-(J2-Pin_7)*%
X157640000Y-65460000D03*
%TO.P,U4,6,MOSI/D7*%
%TO.N,Net-(J2-Pin_6)*%
X157640000Y-62920000D03*
%TO.P,U4,5,MISO/D6*%
%TO.N,Net-(J2-Pin_5)*%
X157640000Y-60380000D03*
%TO.P,U4,4,SCK/D5*%
%TO.N,Net-(J2-Pin_4)*%
X157640000Y-57840000D03*
%TO.P,U4,3,D0*%
%TO.N,Net-(J2-Pin_3)*%
X157640000Y-55300000D03*
%TO.P,U4,2,A0*%
%TO.N,Net-(J1-Pin_8)*%
X157640000Y-52760000D03*
D11*
%TO.P,U4,1,~{RST}*%
%TO.N,Net-(J2-Pin_1)*%
X157640000Y-50220000D03*
%TD*%
%TO.P,U3,1,~{RST}*%
%TO.N,Net-(J2-Pin_1)*%
X122000000Y-50000000D03*
D10*
%TO.P,U3,2,A0*%
%TO.N,Net-(J1-Pin_8)*%
X122000000Y-52540000D03*
%TO.P,U3,3,D0*%
%TO.N,Net-(J2-Pin_3)*%
X122000000Y-55080000D03*
%TO.P,U3,4,SCK/D5*%
%TO.N,Net-(J2-Pin_4)*%
X122000000Y-57620000D03*
%TO.P,U3,5,MISO/D6*%
%TO.N,Net-(J2-Pin_5)*%
X122000000Y-60160000D03*
%TO.P,U3,6,MOSI/D7*%
%TO.N,Net-(J2-Pin_6)*%
X122000000Y-62700000D03*
%TO.P,U3,7,CS/D8*%
%TO.N,Net-(J2-Pin_7)*%
X122000000Y-65240000D03*
%TO.P,U3,8,3V3*%
%TO.N,Net-(J1-Pin_8)*%
X122000000Y-67780000D03*
%TO.P,U3,9,5V*%
X144860000Y-67780000D03*
%TO.P,U3,10,GND*%
%TO.N,GND*%
X144860000Y-65240000D03*
%TO.P,U3,11,D4*%
%TO.N,Net-(J1-Pin_6)*%
X144860000Y-62700000D03*
%TO.P,U3,12,D3*%
%TO.N,Net-(J1-Pin_5)*%
X144860000Y-60160000D03*
%TO.P,U3,13,SDA/D2*%
%TO.N,Net-(J1-Pin_4)*%
X144860000Y-57620000D03*
%TO.P,U3,14,SCL/D1*%
%TO.N,Net-(J1-Pin_3)*%
X144860000Y-55080000D03*
%TO.P,U3,15,RX*%
%TO.N,Net-(J1-Pin_1)*%
X144860000Y-52540000D03*
%TO.P,U3,16,TX*%
X144860000Y-50000000D03*
%TD*%
D11*
%TO.P,U2,1,~{RST}*%
%TO.N,Net-(J2-Pin_1)*%
X122000000Y-92000000D03*
D10*
%TO.P,U2,2,A0*%
%TO.N,Net-(J1-Pin_8)*%
X122000000Y-94540000D03*
%TO.P,U2,3,D0*%
%TO.N,Net-(J2-Pin_3)*%
X122000000Y-97080000D03*
%TO.P,U2,4,SCK/D5*%
%TO.N,Net-(J2-Pin_4)*%
X122000000Y-99620000D03*
%TO.P,U2,5,MISO/D6*%
%TO.N,Net-(J2-Pin_5)*%
X122000000Y-102160000D03*
%TO.P,U2,6,MOSI/D7*%
%TO.N,Net-(J2-Pin_6)*%
X122000000Y-104700000D03*
%TO.P,U2,7,CS/D8*%
%TO.N,Net-(J2-Pin_7)*%
X122000000Y-107240000D03*
%TO.P,U2,8,3V3*%
%TO.N,Net-(J1-Pin_8)*%
X122000000Y-109780000D03*
%TO.P,U2,9,5V*%
X144860000Y-109780000D03*
%TO.P,U2,10,GND*%
%TO.N,GND*%
X144860000Y-107240000D03*
%TO.P,U2,11,D4*%
%TO.N,Net-(J1-Pin_6)*%
X144860000Y-104700000D03*
%TO.P,U2,12,D3*%
%TO.N,Net-(J1-Pin_5)*%
X144860000Y-102160000D03*
%TO.P,U2,13,SDA/D2*%
%TO.N,Net-(J1-Pin_4)*%
X144860000Y-99620000D03*
%TO.P,U2,14,SCL/D1*%
%TO.N,Net-(J1-Pin_3)*%
X144860000Y-97080000D03*
%TO.P,U2,15,RX*%
%TO.N,Net-(J1-Pin_2)*%
X144860000Y-94540000D03*
%TO.P,U2,16,TX*%
%TO.N,Net-(J1-Pin_1)*%
X144860000Y-92000000D03*
%TD*%
D11*
%TO.P,U1,1,~{RST}*%
%TO.N,Net-(J2-Pin_1)*%
X157640000Y-92220000D03*
D10*
%TO.P,U1,2,A0*%
%TO.N,Net-(J1-Pin_8)*%
X157640000Y-94760000D03*
%TO.P,U1,3,D0*%
%TO.N,Net-(J2-Pin_3)*%
X157640000Y-97300000D03*
%TO.P,U1,4,SCK/D5*%
%TO.N,Net-(J2-Pin_4)*%
X157640000Y-99840000D03*
%TO.P,U1,5,MISO/D6*%
%TO.N,Net-(J2-Pin_5)*%
X157640000Y-102380000D03*
%TO.P,U1,6,MOSI/D7*%
%TO.N,Net-(J2-Pin_6)*%
X157640000Y-104920000D03*
%TO.P,U1,7,CS/D8*%
%TO.N,Net-(J2-Pin_7)*%
X157640000Y-107460000D03*
%TO.P,U1,8,3V3*%
%TO.N,Net-(J1-Pin_8)*%
X157640000Y-110000000D03*
%TO.P,U1,9,5V*%
X180500000Y-110000000D03*
%TO.P,U1,10,GND*%
%TO.N,GND*%
X180500000Y-107460000D03*
%TO.P,U1,11,D4*%
%TO.N,Net-(J1-Pin_6)*%
X180500000Y-104920000D03*
%TO.P,U1,12,D3*%
%TO.N,Net-(J1-Pin_5)*%
X180500000Y-102380000D03*
%TO.P,U1,13,SDA/D2*%
%TO.N,Net-(J1-Pin_4)*%
X180500000Y-99840000D03*
%TO.P,U1,14,SCL/D1*%
%TO.N,Net-(J1-Pin_3)*%
X180500000Y-97300000D03*
%TO.P,U1,15,RX*%
%TO.N,Net-(J1-Pin_2)*%
X180500000Y-94760000D03*
%TO.P,U1,16,TX*%
%TO.N,Net-(J1-Pin_1)*%
X180500000Y-92220000D03*
%TD*%
D12*
%TO.P,SW1,1,1*%
%TO.N,GND*%
X111000000Y-61500000D03*
X111000000Y-55000000D03*
%TO.P,SW1,2,2*%
%TO.N,Net-(J2-Pin_1)*%
X115500000Y-61500000D03*
X115500000Y-55000000D03*
%TD*%
D13*
%TO.P,R1,1*%
%TO.N,Net-(D1-A)*%
X185000000Y-43310000D03*
D14*
%TO.P,R1,2*%
%TO.N,Net-(J1-Pin_8)*%
X185000000Y-35690000D03*
%TD*%
D15*
%TO.P,J7,1,Pin_1*%
%TO.N,GND*%
X187000000Y-87500000D03*
D16*
%TO.P,J7,2,Pin_2*%
X187000000Y-90040000D03*
%TO.P,J7,3,Pin_3*%
X187000000Y-92580000D03*
%TO.P,J7,4,Pin_4*%
X187000000Y-95120000D03*
%TO.P,J7,5,Pin_5*%
X187000000Y-97660000D03*
%TD*%
D15*
%TO.P,J6,1,Pin_1*%
%TO.N,Net-(J1-Pin_8)*%
X187000000Y-68250000D03*
D16*
%TO.P,J6,2,Pin_2*%
X187000000Y-70790000D03*
%TO.P,J6,3,Pin_3*%
X187000000Y-73330000D03*
%TO.P,J6,4,Pin_4*%
X187000000Y-75870000D03*
%TO.P,J6,5,Pin_5*%
X187000000Y-78410000D03*
%TD*%
D15*
%TO.P,J5,1,Pin_1*%
%TO.N,Net-(J1-Pin_8)*%
X187000000Y-49000000D03*
D16*
%TO.P,J5,2,Pin_2*%
X187000000Y-51540000D03*
%TO.P,J5,3,Pin_3*%
X187000000Y-54080000D03*
%TO.P,J5,4,Pin_4*%
X187000000Y-56620000D03*
%TO.P,J5,5,Pin_5*%
X187000000Y-59160000D03*
%TD*%
D17*
%TO.P,J4,1,Pin_1*%
%TO.N,Net-(J1-Pin_1)*%
X199500000Y-32500000D03*
D18*
%TO.P,J4,2,Pin_2*%
%TO.N,Net-(J1-Pin_2)*%
X199500000Y-37500000D03*
%TO.P,J4,3,Pin_3*%
%TO.N,Net-(J1-Pin_3)*%
X199500000Y-42500000D03*
%TO.P,J4,4,Pin_4*%
%TO.N,Net-(J1-Pin_4)*%
X199500000Y-47500000D03*
%TO.P,J4,5,Pin_5*%
%TO.N,Net-(J1-Pin_5)*%
X199500000Y-52500000D03*
%TO.P,J4,6,Pin_6*%
%TO.N,Net-(J1-Pin_6)*%
X199500000Y-57500000D03*
%TO.P,J4,7,Pin_7*%
%TO.N,GND*%
X199500000Y-62500000D03*
%TO.P,J4,8,Pin_8*%
%TO.N,Net-(J1-Pin_8)*%
X199500000Y-67500000D03*
%TD*%
D17*
%TO.P,J3,1,Pin_1*%
%TO.N,Net-(J2-Pin_1)*%
X199500000Y-76000000D03*
D18*
%TO.P,J3,2,Pin_2*%
%TO.N,Net-(J1-Pin_8)*%
X199500000Y-81000000D03*
%TO.P,J3,3,Pin_3*%
%TO.N,Net-(J2-Pin_3)*%
X199500000Y-86000000D03*
%TO.P,J3,4,Pin_4*%
%TO.N,Net-(J2-Pin_4)*%
X199500000Y-91000000D03*
%TO.P,J3,5,Pin_5*%
%TO.N,Net-(J2-Pin_5)*%
X199500000Y-96000000D03*
%TO.P,J3,6,Pin_6*%
%TO.N,Net-(J2-Pin_6)*%
X199500000Y-101000000D03*
%TO.P,J3,7,Pin_7*%
%TO.N,Net-(J2-Pin_7)*%
X199500000Y-106000000D03*
%TO.P,J3,8,Pin_8*%
%TO.N,Net-(J1-Pin_8)*%
X199500000Y-111000000D03*
%TD*%
D16*
%TO.P,J2,8,Pin_8*%
%TO.N,Net-(J1-Pin_8)*%
X115500000Y-109795000D03*
%TO.P,J2,7,Pin_7*%
%TO.N,Net-(J2-Pin_7)*%
X115500000Y-107255000D03*
%TO.P,J2,6,Pin_6*%
%TO.N,Net-(J2-Pin_6)*%
X115500000Y-104715000D03*
%TO.P,J2,5,Pin_5*%
%TO.N,Net-(J2-Pin_5)*%
X115500000Y-102175000D03*
%TO.P,J2,4,Pin_4*%
%TO.N,Net-(J2-Pin_4)*%
X115500000Y-99635000D03*
%TO.P,J2,3,Pin_3*%
%TO.N,Net-(J2-Pin_3)*%
X115500000Y-97095000D03*
%TO.P,J2,2,Pin_2*%
%TO.N,Net-(J1-Pin_8)*%
X115500000Y-94555000D03*
D15*
%TO.P,J2,1,Pin_1*%
%TO.N,Net-(J2-Pin_1)*%
X115500000Y-92015000D03*
%TD*%
%TO.P,J1,1,Pin_1*%
%TO.N,Net-(J1-Pin_1)*%
X152000000Y-92015000D03*
D16*
%TO.P,J1,2,Pin_2*%
%TO.N,Net-(J1-Pin_2)*%
X152000000Y-94555000D03*
%TO.P,J1,3,Pin_3*%
%TO.N,Net-(J1-Pin_3)*%
X152000000Y-97095000D03*
%TO.P,J1,4,Pin_4*%
%TO.N,Net-(J1-Pin_4)*%
X152000000Y-99635000D03*
%TO.P,J1,5,Pin_5*%
%TO.N,Net-(J1-Pin_5)*%
X152000000Y-102175000D03*
%TO.P,J1,6,Pin_6*%
%TO.N,Net-(J1-Pin_6)*%
X152000000Y-104715000D03*
%TO.P,J1,7,Pin_7*%
%TO.N,GND*%
X152000000Y-107255000D03*
%TO.P,J1,8,Pin_8*%
%TO.N,Net-(J1-Pin_8)*%
X152000000Y-109795000D03*
%TD*%
D19*
%TO.P,D1,1,K*%
%TO.N,GND*%
X186000000Y-31000000D03*
D20*
%TO.P,D1,2,A*%
%TO.N,Net-(D1-A)*%
X183460000Y-31000000D03*
%TD*%
D21*
%TO.N,Net-(J2-Pin_5)*%
X176523100Y-103380800D03*
%TO.N,Net-(J2-Pin_4)*%
X162041000Y-95781300D03*
%TO.N,Net-(J2-Pin_7)*%
X155206800Y-106744100D03*
%TD*%
D22*
%TO.N,Net-(J2-Pin_5)*%
X115500000Y-102175000D02*
X115500000Y-101023300D01*
X122000000Y-60160000D02*
X122000000Y-61261700D01*
X121671700Y-61261700D02*
X122000000Y-61261700D01*
X119528000Y-63405400D02*
X121671700Y-61261700D01*
X119528000Y-97283200D02*
X119528000Y-63405400D01*
X115787900Y-101023300D02*
X119528000Y-97283200D01*
X115500000Y-101023300D02*
X115787900Y-101023300D01*
X157968300Y-61481700D02*
X157640000Y-61481700D01*
X159784700Y-63298100D02*
X157968300Y-61481700D01*
X159784700Y-99546700D02*
X159784700Y-63298100D01*
X158053100Y-101278300D02*
X159784700Y-99546700D01*
X157640000Y-101278300D02*
X158053100Y-101278300D01*
X157640000Y-102380000D02*
X157640000Y-101278300D01*
X157640000Y-60380000D02*
X157640000Y-61481700D01*
X176523200Y-103380800D02*
X176523100Y-103380800D01*
X176523200Y-105274000D02*
X176523200Y-103380800D01*
X179833200Y-108584000D02*
X176523200Y-105274000D01*
X186916000Y-108584000D02*
X179833200Y-108584000D01*
X199500000Y-96000000D02*
X186916000Y-108584000D01*
%TO.N,Net-(J2-Pin_1)*%
X115500000Y-55000000D02*
X115500000Y-61500000D01*
X115500000Y-92015000D02*
X115500000Y-61500000D01*
%TO.N,Net-(J2-Pin_4)*%
X115500000Y-99635000D02*
X115500000Y-98483300D01*
X122000000Y-57620000D02*
X122000000Y-58721700D01*
X121671700Y-58721700D02*
X122000000Y-58721700D01*
X118104700Y-62288700D02*
X121671700Y-58721700D01*
X118104700Y-96166600D02*
X118104700Y-62288700D01*
X115788000Y-98483300D02*
X118104700Y-96166600D01*
X115500000Y-98483300D02*
X115788000Y-98483300D01*
X157968300Y-58941700D02*
X157640000Y-58941700D01*
X162041000Y-63014400D02*
X157968300Y-58941700D01*
X162041000Y-95781300D02*
X162041000Y-63014400D01*
X157640000Y-57840000D02*
X157640000Y-58941700D01*
%TO.N,Net-(J2-Pin_6)*%
X122000000Y-62700000D02*
X122000000Y-63801700D01*
X122000000Y-104700000D02*
X122000000Y-103598300D01*
X117804800Y-104715000D02*
X120296600Y-102223200D01*
X115500000Y-104715000D02*
X117804800Y-104715000D01*
X120296600Y-65092000D02*
X120296600Y-102223200D01*
X121586900Y-63801700D02*
X120296600Y-65092000D01*
X122000000Y-63801700D02*
X121586900Y-63801700D01*
X121671700Y-103598300D02*
X122000000Y-103598300D01*
X120296600Y-102223200D02*
X121671700Y-103598300D01*
X157968300Y-64021700D02*
X157640000Y-64021700D01*
X159374100Y-65427500D02*
X157968300Y-64021700D01*
X159374100Y-97334500D02*
X159374100Y-65427500D01*
X158138600Y-98570000D02*
X159374100Y-97334500D01*
X157107900Y-98570000D02*
X158138600Y-98570000D01*
X156335200Y-99342700D02*
X157107900Y-98570000D01*
X156335200Y-102926600D02*
X156335200Y-99342700D01*
X157226900Y-103818300D02*
X156335200Y-102926600D01*
X157640000Y-103818300D02*
X157226900Y-103818300D01*
X157640000Y-104920000D02*
X157640000Y-103818300D01*
X157640000Y-62920000D02*
X157640000Y-64021700D01*
%TO.N,Net-(J2-Pin_3)*%
X157640000Y-97300000D02*
X157640000Y-96198300D01*
X157640000Y-55300000D02*
X157640000Y-56401700D01*
X121671700Y-56181700D02*
X122000000Y-56181700D01*
X120560200Y-57293200D02*
X121671700Y-56181700D01*
X120560200Y-58929600D02*
X120560200Y-57293200D01*
X116651700Y-62838100D02*
X120560200Y-58929600D01*
X116651700Y-95943300D02*
X116651700Y-62838100D01*
X115500000Y-97095000D02*
X116651700Y-95943300D01*
X122000000Y-55080000D02*
X122000000Y-56181700D01*
X158009700Y-96198300D02*
X157640000Y-96198300D01*
X158965500Y-95242500D02*
X158009700Y-96198300D01*
X158965500Y-67496500D02*
X158965500Y-95242500D01*
X158030700Y-66561700D02*
X158965500Y-67496500D01*
X156983600Y-66561700D02*
X158030700Y-66561700D01*
X156290200Y-65868300D02*
X156983600Y-66561700D01*
X156290200Y-57423200D02*
X156290200Y-65868300D01*
X157311700Y-56401700D02*
X156290200Y-57423200D01*
X157640000Y-56401700D02*
X157311700Y-56401700D01*
%TO.N,Net-(J2-Pin_7)*%
X122000000Y-107240000D02*
X122000000Y-106138300D01*
X152525500Y-103554100D02*
X123316200Y-103554100D01*
X155206800Y-106235400D02*
X152525500Y-103554100D01*
X155206800Y-106744100D02*
X155206800Y-106235400D01*
X123316200Y-105235200D02*
X123316200Y-103554100D01*
X122413100Y-106138300D02*
X123316200Y-105235200D01*
X122000000Y-106138300D02*
X122413100Y-106138300D01*
X120698300Y-66541700D02*
X122000000Y-65240000D01*
X120698300Y-69082500D02*
X120698300Y-66541700D01*
X123316200Y-71700400D02*
X120698300Y-69082500D01*
X123316200Y-103554100D02*
X123316200Y-71700400D01*
%TO.N,Net-(J1-Pin_5)*%
X180500000Y-102380000D02*
X180500000Y-101278300D01*
X180500000Y-60380000D02*
X180500000Y-61481700D01*
X180086900Y-101278300D02*
X180500000Y-101278300D01*
X177941700Y-99133100D02*
X180086900Y-101278300D01*
X177941700Y-74225000D02*
X177941700Y-99133100D01*
X181806600Y-70360100D02*
X177941700Y-74225000D01*
X181806600Y-62460000D02*
X181806600Y-70360100D01*
X180828300Y-61481700D02*
X181806600Y-62460000D01*
X180500000Y-61481700D02*
X180828300Y-61481700D01*
%TO.N,Net-(J1-Pin_3)*%
X144531700Y-56181700D02*
X144860000Y-56181700D01*
X143510200Y-57203200D02*
X144531700Y-56181700D01*
X143510200Y-95041600D02*
X143510200Y-57203200D01*
X144446900Y-95978300D02*
X143510200Y-95041600D01*
X144860000Y-95978300D02*
X144446900Y-95978300D01*
X144860000Y-97080000D02*
X144860000Y-95978300D01*
X144860000Y-55080000D02*
X144860000Y-56181700D01*
X180171700Y-96198300D02*
X180500000Y-96198300D01*
X178769200Y-94795800D02*
X180171700Y-96198300D01*
X178769200Y-90637300D02*
X178769200Y-94795800D01*
X182614000Y-86792500D02*
X178769200Y-90637300D01*
X182614000Y-58102600D02*
X182614000Y-86792500D01*
X180913100Y-56401700D02*
X182614000Y-58102600D01*
X180500000Y-56401700D02*
X180913100Y-56401700D01*
X180500000Y-55300000D02*
X180500000Y-56401700D01*
X180500000Y-97300000D02*
X180500000Y-96198300D01*
%TO.N,Net-(J1-Pin_6)*%
X180500000Y-62920000D02*
X180500000Y-64021700D01*
X180500000Y-104920000D02*
X180500000Y-103818300D01*
X152000000Y-104715000D02*
X152000000Y-105866700D01*
X180086900Y-103818300D02*
X180500000Y-103818300D01*
X177534800Y-101266200D02*
X180086900Y-103818300D01*
X152288000Y-105866700D02*
X152000000Y-105866700D01*
X153151700Y-106730400D02*
X152288000Y-105866700D01*
X153151700Y-107304500D02*
X153151700Y-106730400D01*
X156961500Y-111114300D02*
X153151700Y-107304500D01*
X167686700Y-111114300D02*
X156961500Y-111114300D01*
X177534800Y-101266200D02*
X167686700Y-111114300D01*
X177534800Y-66573800D02*
X177534800Y-101266200D01*
X180086900Y-64021700D02*
X177534800Y-66573800D01*
X180500000Y-64021700D02*
X180086900Y-64021700D01*
%TO.N,Net-(J1-Pin_2)*%
X180500000Y-52760000D02*
X180500000Y-53861700D01*
X180500000Y-94760000D02*
X180500000Y-93658300D01*
X180913100Y-53861700D02*
X180500000Y-53861700D01*
X183034800Y-55983400D02*
X180913100Y-53861700D01*
X183034800Y-87493500D02*
X183034800Y-55983400D01*
X179184500Y-91343800D02*
X183034800Y-87493500D01*
X179184500Y-92671100D02*
X179184500Y-91343800D01*
X180171700Y-93658300D02*
X179184500Y-92671100D01*
X180500000Y-93658300D02*
X180171700Y-93658300D01*
%TO.N,Net-(J1-Pin_8)*%
X187000000Y-56620000D02*
X187000000Y-54080000D01*
X187000000Y-54080000D02*
X187000000Y-51540000D01*
X187000000Y-51540000D02*
X187000000Y-49000000D01*
X187000000Y-56620000D02*
X187000000Y-59160000D01*
X187000000Y-59160000D02*
X187000000Y-68250000D01*
X187000000Y-78410000D02*
X187000000Y-75870000D01*
X187000000Y-75870000D02*
X187000000Y-73330000D01*
X187000000Y-73330000D02*
X187000000Y-70790000D01*
X187000000Y-70790000D02*
X187000000Y-68250000D01*
X185000000Y-35690000D02*
X185000000Y-36791700D01*
X115231500Y-95706700D02*
X115500000Y-95706700D01*
X114341900Y-96596300D02*
X115231500Y-95706700D01*
X114341900Y-107773100D02*
X114341900Y-96596300D01*
X115212100Y-108643300D02*
X114341900Y-107773100D01*
X115500000Y-108643300D02*
X115212100Y-108643300D01*
X115500000Y-109795000D02*
X115500000Y-108643300D01*
X115500000Y-94555000D02*
X115500000Y-95706700D01*
X122328300Y-53641700D02*
X122000000Y-53641700D01*
X123301800Y-54615200D02*
X122328300Y-53641700D01*
X123301800Y-65789600D02*
X123301800Y-54615200D01*
X122413100Y-66678300D02*
X123301800Y-65789600D01*
X122000000Y-66678300D02*
X122413100Y-66678300D01*
X122000000Y-52540000D02*
X122000000Y-53641700D01*
X122000000Y-67780000D02*
X122000000Y-66678300D01*
X157640000Y-52760000D02*
X157640000Y-53861700D01*
X157640000Y-110000000D02*
X157640000Y-108898300D01*
X157640000Y-94760000D02*
X157640000Y-93658300D01*
X156336200Y-68000000D02*
X157640000Y-68000000D01*
X155888500Y-67552300D02*
X156336200Y-68000000D01*
X155888500Y-55284900D02*
X155888500Y-67552300D01*
X157311700Y-53861700D02*
X155888500Y-55284900D01*
X157640000Y-53861700D02*
X157311700Y-53861700D01*
X156649600Y-93658300D02*
X157640000Y-93658300D01*
X156336200Y-93344900D02*
X156649600Y-93658300D01*
X156336200Y-68000000D02*
X156336200Y-93344900D01*
X187000000Y-38791700D02*
X187000000Y-49000000D01*
X185000000Y-36791700D02*
X187000000Y-38791700D01*
X157226900Y-108898300D02*
X157640000Y-108898300D01*
X155928900Y-107600300D02*
X157226900Y-108898300D01*
X155928900Y-96471100D02*
X155928900Y-107600300D01*
X157640000Y-94760000D02*
X155928900Y-96471100D01*
%TO.N,Net-(J1-Pin_4)*%
X145188300Y-98518300D02*
X144860000Y-98518300D01*
X146174700Y-97531900D02*
X145188300Y-98518300D01*
X146174700Y-59623300D02*
X146174700Y-97531900D01*
X145273100Y-58721700D02*
X146174700Y-59623300D01*
X144860000Y-58721700D02*
X145273100Y-58721700D01*
X144860000Y-57620000D02*
X144860000Y-58721700D01*
X144860000Y-99620000D02*
X144860000Y-98518300D01*
X180500000Y-57840000D02*
X180500000Y-58941700D01*
X180500000Y-99840000D02*
X180500000Y-98738300D01*
X180171700Y-98738300D02*
X180500000Y-98738300D01*
X178353800Y-96920400D02*
X180171700Y-98738300D01*
X178353800Y-89763300D02*
X178353800Y-96920400D01*
X182212300Y-85904800D02*
X178353800Y-89763300D01*
X182212300Y-60240900D02*
X182212300Y-85904800D01*
X180913100Y-58941700D02*
X182212300Y-60240900D01*
X180500000Y-58941700D02*
X180913100Y-58941700D01*
%TO.N,Net-(J1-Pin_1)*%
X180500000Y-92220000D02*
X180500000Y-91118300D01*
X180500000Y-50220000D02*
X180500000Y-51321700D01*
X144860000Y-50000000D02*
X144860000Y-52540000D01*
X144860000Y-52540000D02*
X144860000Y-53641700D01*
X180828300Y-51321700D02*
X180500000Y-51321700D01*
X183485800Y-53979200D02*
X180828300Y-51321700D01*
X183485800Y-88132500D02*
X183485800Y-53979200D01*
X180500000Y-91118300D02*
X183485800Y-88132500D01*
X157041700Y-51590000D02*
X150089200Y-58542500D01*
X180231700Y-51590000D02*
X157041700Y-51590000D01*
X180500000Y-51321700D02*
X180231700Y-51590000D01*
X152000000Y-60453400D02*
X150089200Y-58542500D01*
X152000000Y-92015000D02*
X152000000Y-60453400D01*
X145188300Y-53641700D02*
X144860000Y-53641700D01*
X150089200Y-58542500D02*
X145188300Y-53641700D01*
%TO.N,GND*%
X187000000Y-95120000D02*
X187000000Y-92580000D01*
X187000000Y-92580000D02*
X187000000Y-90040000D01*
X180500000Y-107460000D02*
X180500000Y-106358300D01*
X187000000Y-95120000D02*
X187000000Y-97660000D01*
X180828300Y-106358300D02*
X180500000Y-106358300D01*
X187000000Y-100186600D02*
X180828300Y-106358300D01*
X187000000Y-97660000D02*
X187000000Y-100186600D01*
X111000000Y-55000000D02*
X111000000Y-61500000D01*
X187000000Y-90040000D02*
X187000000Y-87500000D01*
X187000000Y-87500000D02*
X187000000Y-86348300D01*
X188151700Y-73848300D02*
X199500000Y-62500000D01*
X188151700Y-85196600D02*
X188151700Y-73848300D01*
X187000000Y-86348300D02*
X188151700Y-85196600D01*
X186000000Y-31000000D02*
X186000000Y-32201700D01*
X188151700Y-51151700D02*
X199500000Y-62500000D01*
X188151700Y-34353400D02*
X188151700Y-51151700D01*
X186000000Y-32201700D02*
X188151700Y-34353400D01*
%TO.N,Net-(D1-A)*%
X183460000Y-41770000D02*
X185000000Y-43310000D01*
X183460000Y-31000000D02*
X183460000Y-41770000D01*
%TD*%
%TA.AperFunction,Conductor*%
%TO.N,GND*%
G36*
X187250000Y-97226988D02*
G01*
X187192993Y-97194075D01*
X187065826Y-97160000D01*
X186934174Y-97160000D01*
X186807007Y-97194075D01*
X186750000Y-97226988D01*
X186750000Y-95553012D01*
X186807007Y-95585925D01*
X186934174Y-95620000D01*
X187065826Y-95620000D01*
X187192993Y-95585925D01*
X187250000Y-95553012D01*
X187250000Y-97226988D01*
G37*
%TD.AperFunction*%
%TA.AperFunction,Conductor*%
G36*
X187250000Y-94686988D02*
G01*
X187192993Y-94654075D01*
X187065826Y-94620000D01*
X186934174Y-94620000D01*
X186807007Y-94654075D01*
X186750000Y-94686988D01*
X186750000Y-93013012D01*
X186807007Y-93045925D01*
X186934174Y-93080000D01*
X187065826Y-93080000D01*
X187192993Y-93045925D01*
X187250000Y-93013012D01*
X187250000Y-94686988D01*
G37*
%TD.AperFunction*%
%TA.AperFunction,Conductor*%
G36*
X187250000Y-92146988D02*
G01*
X187192993Y-92114075D01*
X187065826Y-92080000D01*
X186934174Y-92080000D01*
X186807007Y-92114075D01*
X186750000Y-92146988D01*
X186750000Y-90473012D01*
X186807007Y-90505925D01*
X186934174Y-90540000D01*
X187065826Y-90540000D01*
X187192993Y-90505925D01*
X187250000Y-90473012D01*
X187250000Y-92146988D01*
G37*
%TD.AperFunction*%
%TA.AperFunction,Conductor*%
G36*
X187250000Y-89606988D02*
G01*
X187192993Y-89574075D01*
X187065826Y-89540000D01*
X186934174Y-89540000D01*
X186807007Y-89574075D01*
X186750000Y-89606988D01*
X186750000Y-87933012D01*
X186807007Y-87965925D01*
X186934174Y-88000000D01*
X187065826Y-88000000D01*
X187192993Y-87965925D01*
X187250000Y-87933012D01*
X187250000Y-89606988D01*
G37*
%TD.AperFunction*%
%TA.AperFunction,Conductor*%
G36*
X206442539Y-27020185D02*
G01*
X206488294Y-27072989D01*
X206499500Y-27124500D01*
X206499500Y-122875500D01*
X206479815Y-122942539D01*
X206427011Y-122988294D01*
X206375500Y-122999500D01*
X108624500Y-122999500D01*
X108557461Y-122979815D01*
X108511706Y-122927011D01*
X108500500Y-122875500D01*
X108500500Y-107852154D01*
X113741398Y-107852154D01*
X113782323Y-108004885D01*
X113811258Y-108055000D01*
X113811259Y-108055004D01*
X113811260Y-108055004D01*
X113861379Y-108141814D01*
X113861381Y-108141817D01*
X113980249Y-108260685D01*
X113980255Y-108260690D01*
X114464652Y-108745087D01*
X114498137Y-108806410D01*
X114493153Y-108876102D01*
X114464665Y-108920437D01*
X114461506Y-108923596D01*
X114325965Y-109117169D01*
X114325964Y-109117171D01*
X114226098Y-109331335D01*
X114226094Y-109331344D01*
X114164938Y-109559586D01*
X114164936Y-109559596D01*
X114144341Y-109794999D01*
X114144341Y-109795000D01*
X114164936Y-110030403D01*
X114164938Y-110030413D01*
X114226094Y-110258655D01*
X114226096Y-110258659D01*
X114226097Y-110258663D01*
X114311267Y-110441311D01*
X114325965Y-110472830D01*
X114325967Y-110472834D01*
X114434065Y-110627213D01*
X114461505Y-110666401D01*
X114628599Y-110833495D01*
X114648199Y-110847219D01*
X114822165Y-110969032D01*
X114822167Y-110969033D01*
X114822170Y-110969035D01*
X115036337Y-111068903D01*
X115264592Y-111130063D01*
X115452918Y-111146539D01*
X115499999Y-111150659D01*
X115500000Y-111150659D01*
X115500001Y-111150659D01*
X115539234Y-111147226D01*
X115735408Y-111130063D01*
X115963663Y-111068903D01*
X116177830Y-110969035D01*
X116371401Y-110833495D01*
X116538495Y-110666401D01*
X116674035Y-110472830D01*
X116773903Y-110258663D01*
X116835063Y-110030408D01*
X116855659Y-109795000D01*
X116835063Y-109559592D01*
X116773903Y-109331337D01*
X116674035Y-109117171D01*
X116671373Y-109113368D01*
X116538494Y-108923597D01*
X116371402Y-108756506D01*
X116371401Y-108756505D01*
X116355094Y-108745087D01*
X116185839Y-108626573D01*
X116142216Y-108571997D01*
X116135023Y-108502498D01*
X116166545Y-108440144D01*
X116185831Y-108423432D01*
X116371401Y-108293495D01*
X116538495Y-108126401D01*
X116674035Y-107932830D01*
X116773903Y-107718663D01*
X116835063Y-107490408D01*
X116855659Y-107255000D01*
X116835063Y-107019592D01*
X116773903Y-106791337D01*
X116674035Y-106577171D01*
X116665405Y-106564845D01*
X116538494Y-106383597D01*
X116371402Y-106216506D01*
X116371396Y-106216501D01*
X116185842Y-106086575D01*
X116142217Y-106031998D01*
X116135023Y-105962500D01*
X116166546Y-105900145D01*
X116185842Y-105883425D01*
X116219989Y-105859515D01*
X116371401Y-105753495D01*
X116538495Y-105586401D01*
X116674035Y-105392830D01*
X116676707Y-105387097D01*
X116722878Y-105334658D01*
X116789091Y-105315500D01*
X117718131Y-105315500D01*
X117718147Y-105315501D01*
X117725743Y-105315501D01*
X117883854Y-105315501D01*
X117883857Y-105315501D01*
X118036585Y-105274577D01*
X118099319Y-105238357D01*
X118173516Y-105195520D01*
X118285320Y-105083716D01*
X118285320Y-105083714D01*
X118295524Y-105073511D01*
X118295527Y-105073506D01*
X120208922Y-103160112D01*
X120270241Y-103126630D01*
X120339933Y-103131614D01*
X120384280Y-103160115D01*
X120854809Y-103630644D01*
X120888294Y-103691967D01*
X120883310Y-103761659D01*
X120854809Y-103806006D01*
X120808032Y-103852782D01*
X120808028Y-103852786D01*
X120687715Y-104018386D01*
X120594781Y-104200776D01*
X120531522Y-104395465D01*
X120499500Y-104597648D01*
X120499500Y-104802351D01*
X120531522Y-105004534D01*
X120594781Y-105199223D01*
X120644135Y-105296084D01*
X120673164Y-105353057D01*
X120687715Y-105381613D01*
X120808028Y-105547213D01*
X120952786Y-105691971D01*
X121107749Y-105804556D01*
X121118390Y-105812287D01*
X121189629Y-105848585D01*
X121211080Y-105859515D01*
X121261876Y-105907490D01*
X121278671Y-105975311D01*
X121256134Y-106041446D01*
X121211080Y-106080485D01*
X121118386Y-106127715D01*
X120952786Y-106248028D01*
X120808028Y-106392786D01*
X120687715Y-106558386D01*
X120594781Y-106740776D01*
X120531522Y-106935465D01*
X120499500Y-107137648D01*
X120499500Y-107342351D01*
X120531522Y-107544534D01*
X120594781Y-107739223D01*
X120687715Y-107921613D01*
X120808028Y-108087213D01*
X120952786Y-108231971D01*
X121107749Y-108344556D01*
X121118390Y-108352287D01*
X121209840Y-108398883D01*
X121211080Y-108399515D01*
X121261876Y-108447490D01*
X121278671Y-108515311D01*
X121256134Y-108581446D01*
X121211080Y-108620485D01*
X121118386Y-108667715D01*
X120952786Y-108788028D01*
X120808028Y-108932786D01*
X120687715Y-109098386D01*
X120594781Y-109280776D01*
X120531522Y-109475465D01*
X120499500Y-109677648D01*
X120499500Y-109882351D01*
X120531522Y-110084534D01*
X120594781Y-110279223D01*
X120687715Y-110461613D01*
X120808028Y-110627213D01*
X120952786Y-110771971D01*
X121107749Y-110884556D01*
X121118390Y-110892287D01*
X121234607Y-110951503D01*
X121300776Y-110985218D01*
X121300778Y-110985218D01*
X121300781Y-110985220D01*
X121405137Y-111019127D01*
X121495465Y-111048477D01*
X121596557Y-111064488D01*
X121697648Y-111080500D01*
X121697649Y-111080500D01*
X122302351Y-111080500D01*
X122302352Y-111080500D01*
X122504534Y-111048477D01*
X122699219Y-110985220D01*
X122881610Y-110892287D01*
X122974590Y-110824732D01*
X123047213Y-110771971D01*
X123047215Y-110771968D01*
X123047219Y-110771966D01*
X123191966Y-110627219D01*
X123191968Y-110627215D01*
X123191971Y-110627213D01*
X123276428Y-110510966D01*
X123312287Y-110461610D01*
X123405220Y-110279219D01*
X123468477Y-110084534D01*
X123500500Y-109882352D01*
X123500500Y-109677648D01*
X123481802Y-109559596D01*
X123468477Y-109475465D01*
X123421649Y-109331344D01*
X123405220Y-109280781D01*
X123405218Y-109280778D01*
X123405218Y-109280776D01*
X123340001Y-109152782D01*
X123312287Y-109098390D01*
X123262908Y-109030425D01*
X123191971Y-108932786D01*
X123047213Y-108788028D01*
X122881614Y-108667715D01*
X122863636Y-108658555D01*
X122788917Y-108620483D01*
X122738123Y-108572511D01*
X122721328Y-108504690D01*
X122743865Y-108438555D01*
X122788917Y-108399516D01*
X122881610Y-108352287D01*
X122902770Y-108336913D01*
X123047213Y-108231971D01*
X123047215Y-108231968D01*
X123047219Y-108231966D01*
X123191966Y-108087219D01*
X123191968Y-108087215D01*
X123191971Y-108087213D01*
X123251785Y-108004885D01*
X123312287Y-107921610D01*
X123405220Y-107739219D01*
X123468477Y-107544534D01*
X123500500Y-107342352D01*
X123500500Y-107137648D01*
X123490972Y-107077489D01*
X123468477Y-106935465D01*
X123421649Y-106791344D01*
X123405220Y-106740781D01*
X123405218Y-106740778D01*
X123405218Y-106740776D01*
X123371503Y-106674607D01*
X123312287Y-106558390D01*
X123282508Y-106517402D01*
X123191971Y-106392786D01*
X123187590Y-106388405D01*
X123154105Y-106327082D01*
X123159089Y-106257390D01*
X123187586Y-106213048D01*
X123684913Y-105715721D01*
X123684916Y-105715720D01*
X123796720Y-105603916D01*
X123846839Y-105517104D01*
X123875777Y-105466985D01*
X123916700Y-105314258D01*
X123916700Y-105156143D01*
X123916700Y-104278600D01*
X123936385Y-104211561D01*
X123989189Y-104165806D01*
X124040700Y-104154600D01*
X143299113Y-104154600D01*
X143366152Y-104174285D01*
X143411907Y-104227089D01*
X143421851Y-104296247D01*
X143417044Y-104316918D01*
X143391523Y-104395461D01*
X143391523Y-104395464D01*
X143359500Y-104597648D01*
X143359500Y-104802351D01*
X143391522Y-105004534D01*
X143454781Y-105199223D01*
X143504135Y-105296084D01*
X143533164Y-105353057D01*
X143547715Y-105381613D01*
X143668028Y-105547213D01*
X143812786Y-105691971D01*
X143967749Y-105804556D01*
X143978390Y-105812287D01*
X144049629Y-105848585D01*
X144071629Y-105859795D01*
X144122425Y-105907770D01*
X144139220Y-105975591D01*
X144116682Y-106041726D01*
X144071629Y-106080765D01*
X143978650Y-106128140D01*
X143813105Y-106248417D01*
X143813104Y-106248417D01*
X143668417Y-106393104D01*
X143668417Y-106393105D01*
X143548140Y-106558650D01*
X143455244Y-106740970D01*
X143392009Y-106935586D01*
X143383391Y-106990000D01*
X144426988Y-106990000D01*
X144394075Y-107047007D01*
X144360000Y-107174174D01*
X144360000Y-107305826D01*
X144394075Y-107432993D01*
X144426988Y-107490000D01*
X143383391Y-107490000D01*
X143392009Y-107544413D01*
X143455244Y-107739029D01*
X143548140Y-107921349D01*
X143668417Y-108086894D01*
X143668417Y-108086895D01*
X143813104Y-108231582D01*
X143978652Y-108351861D01*
X144071628Y-108399234D01*
X144122425Y-108447208D01*
X144139220Y-108515029D01*
X144116683Y-108581164D01*
X144071630Y-108620203D01*
X143978388Y-108667713D01*
X143812786Y-108788028D01*
X143668028Y-108932786D01*
X143547715Y-109098386D01*
X143454781Y-109280776D01*
X143391522Y-109475465D01*
X143359500Y-109677648D01*
X143359500Y-109882351D01*
X143391522Y-110084534D01*
X143454781Y-110279223D01*
X143547715Y-110461613D01*
X143668028Y-110627213D01*
X143812786Y-110771971D01*
X143967749Y-110884556D01*
X143978390Y-110892287D01*
X144094607Y-110951503D01*
X144160776Y-110985218D01*
X144160778Y-110985218D01*
X144160781Y-110985220D01*
X144265137Y-111019127D01*
X144355465Y-111048477D01*
X144456557Y-111064488D01*
X144557648Y-111080500D01*
X144557649Y-111080500D01*
X145162351Y-111080500D01*
X145162352Y-111080500D01*
X145364534Y-111048477D01*
X145559219Y-110985220D01*
X145741610Y-110892287D01*
X145834590Y-110824732D01*
X145907213Y-110771971D01*
X145907215Y-110771968D01*
X145907219Y-110771966D01*
X146051966Y-110627219D01*
X146051968Y-110627215D01*
X146051971Y-110627213D01*
X146136428Y-110510966D01*
X146172287Y-110461610D01*
X146265220Y-110279219D01*
X146328477Y-110084534D01*
X146360500Y-109882352D01*
X146360500Y-109677648D01*
X146341802Y-109559596D01*
X146328477Y-109475465D01*
X146281649Y-109331344D01*
X146265220Y-109280781D01*
X146265218Y-109280778D01*
X146265218Y-109280776D01*
X146200001Y-109152782D01*
X146172287Y-109098390D01*
X146122908Y-109030425D01*
X146051971Y-108932786D01*
X145907213Y-108788028D01*
X145741611Y-108667713D01*
X145648369Y-108620203D01*
X145597574Y-108572229D01*
X145580779Y-108504407D01*
X145603317Y-108438273D01*
X145648371Y-108399234D01*
X145741347Y-108351861D01*
X145906894Y-108231582D01*
X145906895Y-108231582D01*
X146051582Y-108086895D01*
X146051582Y-108086894D01*
X146171859Y-107921349D01*
X146264755Y-107739029D01*
X146327990Y-107544413D01*
X146336609Y-107490000D01*
X145293012Y-107490000D01*
X145325925Y-107432993D01*
X145360000Y-107305826D01*
X145360000Y-107174174D01*
X145325925Y-107047007D01*
X145293012Y-106990000D01*
X146336609Y-106990000D01*
X146327990Y-106935586D01*
X146264755Y-106740970D01*
X146171859Y-106558650D01*
X146051582Y-106393105D01*
X146051582Y-106393104D01*
X145906895Y-106248417D01*
X145741349Y-106128140D01*
X145648370Y-106080765D01*
X145597574Y-106032790D01*
X145580779Y-105964969D01*
X145603316Y-105898835D01*
X145648370Y-105859795D01*
X145648920Y-105859515D01*
X145741610Y-105812287D01*
X145762770Y-105796913D01*
X145907213Y-105691971D01*
X145907215Y-105691968D01*
X145907219Y-105691966D01*
X146051966Y-105547219D01*
X146051968Y-105547215D01*
X146051971Y-105547213D01*
X146110260Y-105466984D01*
X146172287Y-105381610D01*
X146265220Y-105199219D01*
X146328477Y-105004534D01*
X146360500Y-104802352D01*
X146360500Y-104597648D01*
X146328477Y-104395466D01*
X146328476Y-104395462D01*
X146328476Y-104395461D01*
X146302956Y-104316918D01*
X146300961Y-104247077D01*
X146337041Y-104187244D01*
X146399742Y-104156416D01*
X146420887Y-104154600D01*
X150590418Y-104154600D01*
X150657457Y-104174285D01*
X150703212Y-104227089D01*
X150713156Y-104296247D01*
X150710193Y-104310693D01*
X150664938Y-104479586D01*
X150664936Y-104479596D01*
X150644341Y-104714999D01*
X150644341Y-104715000D01*
X150664936Y-104950403D01*
X150664938Y-104950413D01*
X150726094Y-105178655D01*
X150726096Y-105178659D01*
X150726097Y-105178663D01*
X150820733Y-105381610D01*
X150825965Y-105392830D01*
X150825967Y-105392834D01*
X150961501Y-105586395D01*
X150961506Y-105586402D01*
X151128597Y-105753493D01*
X151128603Y-105753498D01*
X151140160Y-105761590D01*
X151264401Y-105848585D01*
X151314594Y-105883730D01*
X151358219Y-105938307D01*
X151365413Y-106007805D01*
X151333890Y-106070160D01*
X151314595Y-106086880D01*
X151128922Y-106216890D01*
X151128920Y-106216891D01*
X150961891Y-106383920D01*
X150961886Y-106383926D01*
X150826400Y-106577420D01*
X150826399Y-106577422D01*
X150726570Y-106791507D01*
X150726567Y-106791513D01*
X150669364Y-107004999D01*
X150669364Y-107005000D01*
X151566988Y-107005000D01*
X151534075Y-107062007D01*
X151500000Y-107189174D01*
X151500000Y-107320826D01*
X151534075Y-107447993D01*
X151566988Y-107505000D01*
X150669364Y-107505000D01*
X150726567Y-107718486D01*
X150726570Y-107718492D01*
X150826399Y-107932578D01*
X150961894Y-108126082D01*
X151128917Y-108293105D01*
X151314595Y-108423119D01*
X151358219Y-108477696D01*
X151365412Y-108547195D01*
X151333890Y-108609549D01*
X151314595Y-108626269D01*
X151128594Y-108756508D01*
X150961505Y-108923597D01*
X150825965Y-109117169D01*
X150825964Y-109117171D01*
X150726098Y-109331335D01*
X150726094Y-109331344D01*
X150664938Y-109559586D01*
X150664936Y-109559596D01*
X150644341Y-109794999D01*
X150644341Y-109795000D01*
X150664936Y-110030403D01*
X150664938Y-110030413D01*
X150726094Y-110258655D01*
X150726096Y-110258659D01*
X150726097Y-110258663D01*
X150811267Y-110441311D01*
X150825965Y-110472830D01*
X150825967Y-110472834D01*
X150934065Y-110627213D01*
X150961505Y-110666401D01*
X151128599Y-110833495D01*
X151148199Y-110847219D01*
X151322165Y-110969032D01*
X151322167Y-110969033D01*
X151322170Y-110969035D01*
X151536337Y-111068903D01*
X151764592Y-111130063D01*
X151952918Y-111146539D01*
X151999999Y-111150659D01*
X152000000Y-111150659D01*
X152000001Y-111150659D01*
X152039234Y-111147226D01*
X152235408Y-111130063D01*
X152463663Y-111068903D01*
X152677830Y-110969035D01*
X152871401Y-110833495D01*
X153038495Y-110666401D01*
X153174035Y-110472830D01*
X153273903Y-110258663D01*
X153335063Y-110030408D01*
X153355659Y-109795000D01*
X153335063Y-109559592D01*
X153273903Y-109331337D01*
X153174035Y-109117171D01*
X153171373Y-109113368D01*
X153038494Y-108923597D01*
X152871402Y-108756506D01*
X152871401Y-108756505D01*
X152703844Y-108639180D01*
X152685405Y-108626269D01*
X152641781Y-108571692D01*
X152634588Y-108502193D01*
X152666110Y-108439839D01*
X152685405Y-108423119D01*
X152871078Y-108293108D01*
X152993394Y-108170792D01*
X153054717Y-108137307D01*
X153124409Y-108142291D01*
X153168757Y-108170792D01*
X156476639Y-111478674D01*
X156476649Y-111478685D01*
X156480979Y-111483015D01*
X156480980Y-111483016D01*
X156592784Y-111594820D01*
X156679595Y-111644939D01*
X156679597Y-111644941D01*
X156717651Y-111666911D01*
X156729715Y-111673877D01*
X156882443Y-111714801D01*
X156882446Y-111714801D01*
X157048153Y-111714801D01*
X157048169Y-111714800D01*
X167600031Y-111714800D01*
X167600047Y-111714801D01*
X167607643Y-111714801D01*
X167765754Y-111714801D01*
X167765757Y-111714801D01*
X167918485Y-111673877D01*
X167968604Y-111644939D01*
X168055416Y-111594820D01*
X168167220Y-111483016D01*
X168167220Y-111483014D01*
X168177428Y-111472807D01*
X168177429Y-111472804D01*
X175711021Y-103939213D01*
X175772342Y-103905730D01*
X175842034Y-103910714D01*
X175897967Y-103952586D01*
X175922384Y-104018050D01*
X175922700Y-104026896D01*
X175922700Y-105187330D01*
X175922699Y-105187348D01*
X175922699Y-105353054D01*
X175922698Y-105353054D01*
X175922699Y-105353057D01*
X175963623Y-105505785D01*
X175963624Y-105505787D01*
X175963623Y-105505787D01*
X175972119Y-105520501D01*
X175972120Y-105520502D01*
X176042677Y-105642712D01*
X176042681Y-105642717D01*
X176161549Y-105761585D01*
X176161555Y-105761590D01*
X179342708Y-108942743D01*
X179376193Y-109004066D01*
X179371209Y-109073758D01*
X179342709Y-109118104D01*
X179308038Y-109152775D01*
X179308033Y-109152781D01*
X179187715Y-109318386D01*
X179094781Y-109500776D01*
X179031522Y-109695465D01*
X178999500Y-109897648D01*
X178999500Y-110102351D01*
X179031522Y-110304534D01*
X179094781Y-110499223D01*
X179187715Y-110681613D01*
X179308028Y-110847213D01*
X179452786Y-110991971D01*
X179607749Y-111104556D01*
X179618390Y-111112287D01*
X179734607Y-111171503D01*
X179800776Y-111205218D01*
X179800778Y-111205218D01*
X179800781Y-111205220D01*
X179905137Y-111239127D01*
X179995465Y-111268477D01*
X180096557Y-111284488D01*
X180197648Y-111300500D01*
X180197649Y-111300500D01*
X180802351Y-111300500D01*
X180802352Y-111300500D01*
X181004534Y-111268477D01*
X181199219Y-111205220D01*
X181381610Y-111112287D01*
X181536156Y-111000004D01*
X181536168Y-110999995D01*
X197744592Y-110999995D01*
X197744592Y-111000004D01*
X197764196Y-111261620D01*
X197764197Y-111261625D01*
X197822576Y-111517402D01*
X197822578Y-111517411D01*
X197822580Y-111517416D01*
X197918432Y-111761643D01*
X198049614Y-111988857D01*
X198181736Y-112154533D01*
X198213198Y-112193985D01*
X198394753Y-112362441D01*
X198405521Y-112372433D01*
X198622296Y-112520228D01*
X198622301Y-112520230D01*
X198622302Y-112520231D01*
X198622303Y-112520232D01*
X198747843Y-112580688D01*
X198858673Y-112634061D01*
X198858674Y-112634061D01*
X198858677Y-112634063D01*
X199109385Y-112711396D01*
X199368818Y-112750500D01*
X199631182Y-112750500D01*
X199890615Y-112711396D01*
X200141323Y-112634063D01*
X200377704Y-112520228D01*
X200594479Y-112372433D01*
X200786805Y-112193981D01*
X200950386Y-111988857D01*
X201081568Y-111761643D01*
X201177420Y-111517416D01*
X201235802Y-111261630D01*
X201235803Y-111261620D01*
X201255408Y-111000004D01*
X201255408Y-110999995D01*
X201235803Y-110738379D01*
X201235802Y-110738374D01*
X201235802Y-110738370D01*
X201177420Y-110482584D01*
X201081568Y-110238357D01*
X200950386Y-110011143D01*
X200786805Y-109806019D01*
X200786804Y-109806018D01*
X200786801Y-109806014D01*
X200594479Y-109627567D01*
X200494769Y-109559586D01*
X200377704Y-109479772D01*
X200377700Y-109479770D01*
X200377697Y-109479768D01*
X200377696Y-109479767D01*
X200141325Y-109365938D01*
X200141327Y-109365938D01*
X199890623Y-109288606D01*
X199890619Y-109288605D01*
X199890615Y-109288604D01*
X199765823Y-109269794D01*
X199631187Y-109249500D01*
X199631182Y-109249500D01*
X199368818Y-109249500D01*
X199368812Y-109249500D01*
X199207247Y-109273853D01*
X199109385Y-109288604D01*
X199109382Y-109288605D01*
X199109376Y-109288606D01*
X198858673Y-109365938D01*
X198622303Y-109479767D01*
X198622302Y-109479768D01*
X198405520Y-109627567D01*
X198213198Y-109806014D01*
X198049614Y-110011143D01*
X197918432Y-110238356D01*
X197822582Y-110482578D01*
X197822576Y-110482597D01*
X197764197Y-110738374D01*
X197764196Y-110738379D01*
X197744592Y-110999995D01*
X181536168Y-110999995D01*
X181547213Y-110991971D01*
X181547215Y-110991968D01*
X181547219Y-110991966D01*
X181691966Y-110847219D01*
X181691968Y-110847215D01*
X181691971Y-110847213D01*
X181771046Y-110738374D01*
X181812287Y-110681610D01*
X181905220Y-110499219D01*
X181968477Y-110304534D01*
X182000500Y-110102352D01*
X182000500Y-109897648D01*
X181968477Y-109695466D01*
X181905220Y-109500781D01*
X181905218Y-109500778D01*
X181905218Y-109500776D01*
X181856408Y-109404982D01*
X181835930Y-109364793D01*
X181823035Y-109296126D01*
X181849311Y-109231386D01*
X181906417Y-109191128D01*
X181946416Y-109184500D01*
X186829331Y-109184500D01*
X186829347Y-109184501D01*
X186836943Y-109184501D01*
X186995054Y-109184501D01*
X186995057Y-109184501D01*
X187147785Y-109143577D01*
X187147787Y-109143575D01*
X187147789Y-109143575D01*
X187147790Y-109143574D01*
X187200107Y-109113369D01*
X187200108Y-109113368D01*
X187284716Y-109064520D01*
X187396520Y-108952716D01*
X187396520Y-108952714D01*
X187406724Y-108942511D01*
X187406728Y-108942506D01*
X190349239Y-105999995D01*
X197744592Y-105999995D01*
X197744592Y-106000004D01*
X197764196Y-106261620D01*
X197764197Y-106261625D01*
X197822576Y-106517402D01*
X197822578Y-106517411D01*
X197822580Y-106517416D01*
X197918432Y-106761643D01*
X198049614Y-106988857D01*
X198133162Y-107093623D01*
X198213198Y-107193985D01*
X198394753Y-107362441D01*
X198405521Y-107372433D01*
X198622296Y-107520228D01*
X198622301Y-107520230D01*
X198622302Y-107520231D01*
X198622303Y-107520232D01*
X198685042Y-107550445D01*
X198858673Y-107634061D01*
X198858674Y-107634061D01*
X198858677Y-107634063D01*
X199109385Y-107711396D01*
X199368818Y-107750500D01*
X199631182Y-107750500D01*
X199890615Y-107711396D01*
X200141323Y-107634063D01*
X200377704Y-107520228D01*
X200594479Y-107372433D01*
X200786805Y-107193981D01*
X200950386Y-106988857D01*
X201081568Y-106761643D01*
X201177420Y-106517416D01*
X201235802Y-106261630D01*
X201236120Y-106257390D01*
X201255408Y-106000004D01*
X201255408Y-105999995D01*
X201235803Y-105738379D01*
X201235802Y-105738374D01*
X201235802Y-105738370D01*
X201177420Y-105482584D01*
X201081568Y-105238357D01*
X200950386Y-105011143D01*
X200786805Y-104806019D01*
X200786804Y-104806018D01*
X200786801Y-104806014D01*
X200594479Y-104627567D01*
X200550596Y-104597648D01*
X200377704Y-104479772D01*
X200377700Y-104479770D01*
X200377697Y-104479768D01*
X200377696Y-104479767D01*
X200141325Y-104365938D01*
X200141327Y-104365938D01*
X199890623Y-104288606D01*
X199890619Y-104288605D01*
X199890615Y-104288604D01*
X199765823Y-104269794D01*
X199631187Y-104249500D01*
X199631182Y-104249500D01*
X199368818Y-104249500D01*
X199368812Y-104249500D01*
X199207247Y-104273853D01*
X199109385Y-104288604D01*
X199109382Y-104288605D01*
X199109376Y-104288606D01*
X198858673Y-104365938D01*
X198622303Y-104479767D01*
X198622302Y-104479768D01*
X198405520Y-104627567D01*
X198213198Y-104806014D01*
X198049614Y-105011143D01*
X197918432Y-105238357D01*
X197888644Y-105314256D01*
X197822582Y-105482578D01*
X197822576Y-105482597D01*
X197764197Y-105738374D01*
X197764196Y-105738379D01*
X197744592Y-105999995D01*
X190349239Y-105999995D01*
X195349238Y-100999995D01*
X197744592Y-100999995D01*
X197744592Y-101000004D01*
X197764196Y-101261620D01*
X197764197Y-101261625D01*
X197764197Y-101261629D01*
X197764198Y-101261630D01*
X197765587Y-101267715D01*
X197822576Y-101517402D01*
X197822578Y-101517411D01*
X197822580Y-101517416D01*
X197918432Y-101761643D01*
X198049614Y-101988857D01*
X198150557Y-102115435D01*
X198213198Y-102193985D01*
X198394753Y-102362441D01*
X198405521Y-102372433D01*
X198622296Y-102520228D01*
X198622301Y-102520230D01*
X198622302Y-102520231D01*
X198622303Y-102520232D01*
X198747843Y-102580688D01*
X198858673Y-102634061D01*
X198858674Y-102634061D01*
X198858677Y-102634063D01*
X199109385Y-102711396D01*
X199368818Y-102750500D01*
X199631182Y-102750500D01*
X199890615Y-102711396D01*
X200141323Y-102634063D01*
X200377704Y-102520228D01*
X200594479Y-102372433D01*
X200786805Y-102193981D01*
X200950386Y-101988857D01*
X201081568Y-101761643D01*
X201177420Y-101517416D01*
X201235802Y-101261630D01*
X201235803Y-101261620D01*
X201255408Y-101000004D01*
X201255408Y-100999995D01*
X201235803Y-100738379D01*
X201235802Y-100738374D01*
X201235802Y-100738370D01*
X201177420Y-100482584D01*
X201081568Y-100238357D01*
X200950386Y-100011143D01*
X200786805Y-99806019D01*
X200786804Y-99806018D01*
X200786801Y-99806014D01*
X200594479Y-99627567D01*
X200591823Y-99625756D01*
X200377704Y-99479772D01*
X200377700Y-99479770D01*
X200377697Y-99479768D01*
X200377696Y-99479767D01*
X200141325Y-99365938D01*
X200141327Y-99365938D01*
X199890623Y-99288606D01*
X199890619Y-99288605D01*
X199890615Y-99288604D01*
X199765823Y-99269794D01*
X199631187Y-99249500D01*
X199631182Y-99249500D01*
X199368818Y-99249500D01*
X199368812Y-99249500D01*
X199207247Y-99273853D01*
X199109385Y-99288604D01*
X199109382Y-99288605D01*
X199109376Y-99288606D01*
X198858673Y-99365938D01*
X198622303Y-99479767D01*
X198622302Y-99479768D01*
X198405520Y-99627567D01*
X198213198Y-99806014D01*
X198049614Y-100011143D01*
X197918432Y-100238356D01*
X197822582Y-100482578D01*
X197822576Y-100482597D01*
X197764197Y-100738374D01*
X197764196Y-100738379D01*
X197744592Y-100999995D01*
X195349238Y-100999995D01*
X198699605Y-97649628D01*
X198760926Y-97616145D01*
X198830618Y-97621129D01*
X198841079Y-97625588D01*
X198858677Y-97634063D01*
X199109385Y-97711396D01*
X199368818Y-97750500D01*
X199631182Y-97750500D01*
X199890615Y-97711396D01*
X200141323Y-97634063D01*
X200377704Y-97520228D01*
X200594479Y-97372433D01*
X200786805Y-97193981D01*
X200950386Y-96988857D01*
X201081568Y-96761643D01*
X201177420Y-96517416D01*
X201235802Y-96261630D01*
X201235803Y-96261620D01*
X201255408Y-96000004D01*
X201255408Y-95999995D01*
X201235803Y-95738379D01*
X201235802Y-95738374D01*
X201235802Y-95738370D01*
X201177420Y-95482584D01*
X201081568Y-95238357D01*
X200950386Y-95011143D01*
X200786805Y-94806019D01*
X200786804Y-94806018D01*
X200786801Y-94806014D01*
X200594479Y-94627567D01*
X200583380Y-94620000D01*
X200377704Y-94479772D01*
X200377700Y-94479770D01*
X200377697Y-94479768D01*
X200377696Y-94479767D01*
X200141325Y-94365938D01*
X200141327Y-94365938D01*
X199890623Y-94288606D01*
X199890619Y-94288605D01*
X199890615Y-94288604D01*
X199765823Y-94269794D01*
X199631187Y-94249500D01*
X199631182Y-94249500D01*
X199368818Y-94249500D01*
X199368812Y-94249500D01*
X199207247Y-94273853D01*
X199109385Y-94288604D01*
X199109382Y-94288605D01*
X199109376Y-94288606D01*
X198858673Y-94365938D01*
X198622303Y-94479767D01*
X198622302Y-94479768D01*
X198405520Y-94627567D01*
X198213198Y-94806014D01*
X198049614Y-95011143D01*
X197918432Y-95238356D01*
X197822582Y-95482578D01*
X197822576Y-95482597D01*
X197764197Y-95738374D01*
X197764196Y-95738379D01*
X197744592Y-95999995D01*
X197744592Y-96000004D01*
X197764196Y-96261620D01*
X197764197Y-96261625D01*
X197822578Y-96517412D01*
X197880509Y-96665019D01*
X197886677Y-96734616D01*
X197854239Y-96796500D01*
X197852761Y-96798002D01*
X186703584Y-107947181D01*
X186642261Y-107980666D01*
X186615903Y-107983500D01*
X182067476Y-107983500D01*
X182000437Y-107963815D01*
X181954682Y-107911011D01*
X181944738Y-107841853D01*
X181949545Y-107821181D01*
X181967991Y-107764411D01*
X181976609Y-107710000D01*
X180933012Y-107710000D01*
X180965925Y-107652993D01*
X181000000Y-107525826D01*
X181000000Y-107394174D01*
X180965925Y-107267007D01*
X180933012Y-107210000D01*
X181976609Y-107210000D01*
X181967990Y-107155586D01*
X181904755Y-106960970D01*
X181811859Y-106778650D01*
X181691582Y-106613105D01*
X181691582Y-106613104D01*
X181546895Y-106468417D01*
X181381349Y-106348140D01*
X181288370Y-106300765D01*
X181237574Y-106252790D01*
X181220779Y-106184969D01*
X181243316Y-106118835D01*
X181288370Y-106079795D01*
X181288920Y-106079515D01*
X181381610Y-106032287D01*
X181415307Y-106007805D01*
X181547213Y-105911971D01*
X181547215Y-105911968D01*
X181547219Y-105911966D01*
X181691966Y-105767219D01*
X181691968Y-105767215D01*
X181691971Y-105767213D01*
X181746640Y-105691966D01*
X181812287Y-105601610D01*
X181905220Y-105419219D01*
X181968477Y-105224534D01*
X182000500Y-105022352D01*
X182000500Y-104817648D01*
X181968477Y-104615466D01*
X181905220Y-104420781D01*
X181905218Y-104420778D01*
X181905218Y-104420776D01*
X181849127Y-104310693D01*
X181812287Y-104238390D01*
X181775128Y-104187244D01*
X181691971Y-104072786D01*
X181547213Y-103928028D01*
X181381614Y-103807715D01*
X181375006Y-103804348D01*
X181288917Y-103760483D01*
X181238123Y-103712511D01*
X181221328Y-103644690D01*
X181243865Y-103578555D01*
X181288917Y-103539516D01*
X181381610Y-103492287D01*
X181405345Y-103475043D01*
X181547213Y-103371971D01*
X181547215Y-103371968D01*
X181547219Y-103371966D01*
X181691966Y-103227219D01*
X181691968Y-103227215D01*
X181691971Y-103227213D01*
X181744732Y-103154590D01*
X181812287Y-103061610D01*
X181905220Y-102879219D01*
X181968477Y-102684534D01*
X182000500Y-102482352D01*
X182000500Y-102277648D01*
X181968477Y-102075466D01*
X181905220Y-101880781D01*
X181905218Y-101880778D01*
X181905218Y-101880776D01*
X181818887Y-101711344D01*
X181812287Y-101698390D01*
X181784959Y-101660776D01*
X181691971Y-101532786D01*
X181547213Y-101388028D01*
X181381614Y-101267715D01*
X181369652Y-101261620D01*
X181288917Y-101220483D01*
X181238123Y-101172511D01*
X181221328Y-101104690D01*
X181243865Y-101038555D01*
X181288917Y-100999516D01*
X181381610Y-100952287D01*
X181446696Y-100905000D01*
X181547213Y-100831971D01*
X181547215Y-100831968D01*
X181547219Y-100831966D01*
X181691966Y-100687219D01*
X181691968Y-100687215D01*
X181691971Y-100687213D01*
X181787094Y-100556285D01*
X181812287Y-100521610D01*
X181905220Y-100339219D01*
X181968477Y-100144534D01*
X182000500Y-99942352D01*
X182000500Y-99737648D01*
X181968477Y-99535466D01*
X181905220Y-99340781D01*
X181905218Y-99340778D01*
X181905218Y-99340776D01*
X181838563Y-99209960D01*
X181812287Y-99158390D01*
X181767806Y-99097166D01*
X181691971Y-98992786D01*
X181547213Y-98848028D01*
X181381614Y-98727715D01*
X181323501Y-98698105D01*
X181288917Y-98680483D01*
X181238123Y-98632511D01*
X181221328Y-98564690D01*
X181243865Y-98498555D01*
X181288917Y-98459516D01*
X181381610Y-98412287D01*
X181415727Y-98387500D01*
X181547213Y-98291971D01*
X181547215Y-98291968D01*
X181547219Y-98291966D01*
X181691966Y-98147219D01*
X181691968Y-98147215D01*
X181691971Y-98147213D01*
X181782483Y-98022632D01*
X181812287Y-97981610D01*
X181905220Y-97799219D01*
X181968477Y-97604534D01*
X182000500Y-97402352D01*
X182000500Y-97197648D01*
X181968477Y-96995466D01*
X181966329Y-96988856D01*
X181924327Y-96859586D01*
X181905220Y-96800781D01*
X181905218Y-96800778D01*
X181905218Y-96800776D01*
X181846409Y-96685359D01*
X181812287Y-96618390D01*
X181769858Y-96559991D01*
X181691971Y-96452786D01*
X181547213Y-96308028D01*
X181381614Y-96187715D01*
X181323501Y-96158105D01*
X181288917Y-96140483D01*
X181238123Y-96092511D01*
X181221328Y-96024690D01*
X181243865Y-95958555D01*
X181288917Y-95919516D01*
X181381610Y-95872287D01*
X181415727Y-95847500D01*
X181547213Y-95751971D01*
X181547215Y-95751968D01*
X181547219Y-95751966D01*
X181691966Y-95607219D01*
X181691968Y-95607215D01*
X181691971Y-95607213D01*
X181753793Y-95522121D01*
X181812287Y-95441610D01*
X181905220Y-95259219D01*
X181968477Y-95064534D01*
X182000500Y-94862352D01*
X182000500Y-94657648D01*
X181968477Y-94455466D01*
X181968476Y-94455464D01*
X181914261Y-94288606D01*
X181905220Y-94260781D01*
X181905218Y-94260778D01*
X181905218Y-94260776D01*
X181871503Y-94194607D01*
X181812287Y-94078390D01*
X181804556Y-94067749D01*
X181691971Y-93912786D01*
X181547213Y-93768028D01*
X181381614Y-93647715D01*
X181375006Y-93644348D01*
X181288917Y-93600483D01*
X181238123Y-93552511D01*
X181221328Y-93484690D01*
X181243865Y-93418555D01*
X181288917Y-93379516D01*
X181381610Y-93332287D01*
X181402770Y-93316913D01*
X181547213Y-93211971D01*
X181547215Y-93211968D01*
X181547219Y-93211966D01*
X181691966Y-93067219D01*
X181691968Y-93067215D01*
X181691971Y-93067213D01*
X181760796Y-92972482D01*
X181812287Y-92901610D01*
X181905220Y-92719219D01*
X181968477Y-92524534D01*
X182000500Y-92322352D01*
X182000500Y-92117648D01*
X181968477Y-91915466D01*
X181905220Y-91720781D01*
X181905218Y-91720778D01*
X181905218Y-91720776D01*
X181871503Y-91654607D01*
X181812287Y-91538390D01*
X181797049Y-91517416D01*
X181691971Y-91372786D01*
X181547215Y-91228030D01*
X181486448Y-91183882D01*
X181443782Y-91128553D01*
X181437801Y-91058940D01*
X181470406Y-90997144D01*
X181471577Y-90995956D01*
X183854513Y-88613021D01*
X183854516Y-88613020D01*
X183966320Y-88501216D01*
X184016439Y-88414404D01*
X184045377Y-88364285D01*
X184086301Y-88211557D01*
X184086301Y-88053443D01*
X184086301Y-88045848D01*
X184086300Y-88045830D01*
X184086300Y-86602155D01*
X185650000Y-86602155D01*
X185650000Y-87250000D01*
X186566988Y-87250000D01*
X186534075Y-87307007D01*
X186500000Y-87434174D01*
X186500000Y-87565826D01*
X186534075Y-87692993D01*
X186566988Y-87750000D01*
X185650000Y-87750000D01*
X185650000Y-88397844D01*
X185656401Y-88457372D01*
X185656403Y-88457379D01*
X185706645Y-88592086D01*
X185706649Y-88592093D01*
X185792809Y-88707187D01*
X185792812Y-88707190D01*
X185907906Y-88793350D01*
X185907913Y-88793354D01*
X186039986Y-88842614D01*
X186095920Y-88884485D01*
X186120337Y-88949949D01*
X186105486Y-89018222D01*
X186084335Y-89046477D01*
X185961886Y-89168926D01*
X185826400Y-89362420D01*
X185826399Y-89362422D01*
X185726570Y-89576507D01*
X185726567Y-89576513D01*
X185669364Y-89789999D01*
X185669364Y-89790000D01*
X186566988Y-89790000D01*
X186534075Y-89847007D01*
X186500000Y-89974174D01*
X186500000Y-90105826D01*
X186534075Y-90232993D01*
X186566988Y-90290000D01*
X185669364Y-90290000D01*
X185726567Y-90503486D01*
X185726570Y-90503492D01*
X185826399Y-90717578D01*
X185961894Y-90911082D01*
X186128917Y-91078105D01*
X186315031Y-91208425D01*
X186358656Y-91263003D01*
X186365848Y-91332501D01*
X186334326Y-91394856D01*
X186315031Y-91411575D01*
X186128922Y-91541890D01*
X186128920Y-91541891D01*
X185961891Y-91708920D01*
X185961886Y-91708926D01*
X185826400Y-91902420D01*
X185826399Y-91902422D01*
X185726570Y-92116507D01*
X185726567Y-92116513D01*
X185669364Y-92329999D01*
X185669364Y-92330000D01*
X186566988Y-92330000D01*
X186534075Y-92387007D01*
X186500000Y-92514174D01*
X186500000Y-92645826D01*
X186534075Y-92772993D01*
X186566988Y-92830000D01*
X185669364Y-92830000D01*
X185726567Y-93043486D01*
X185726570Y-93043492D01*
X185826399Y-93257578D01*
X185961894Y-93451082D01*
X186128917Y-93618105D01*
X186315031Y-93748425D01*
X186358656Y-93803003D01*
X186365848Y-93872501D01*
X186334326Y-93934856D01*
X186315031Y-93951575D01*
X186128922Y-94081890D01*
X186128920Y-94081891D01*
X185961891Y-94248920D01*
X185961886Y-94248926D01*
X185826400Y-94442420D01*
X185826399Y-94442422D01*
X185726570Y-94656507D01*
X185726567Y-94656513D01*
X185669364Y-94869999D01*
X185669364Y-94870000D01*
X186566988Y-94870000D01*
X186534075Y-94927007D01*
X186500000Y-95054174D01*
X186500000Y-95185826D01*
X186534075Y-95312993D01*
X186566988Y-95370000D01*
X185669364Y-95370000D01*
X185726567Y-95583486D01*
X185726570Y-95583492D01*
X185826399Y-95797578D01*
X185961894Y-95991082D01*
X186128917Y-96158105D01*
X186315031Y-96288425D01*
X186358656Y-96343003D01*
X186365848Y-96412501D01*
X186334326Y-96474856D01*
X186315031Y-96491575D01*
X186128922Y-96621890D01*
X186128920Y-96621891D01*
X185961891Y-96788920D01*
X185961886Y-96788926D01*
X185826400Y-96982420D01*
X185826399Y-96982422D01*
X185726570Y-97196507D01*
X185726567Y-97196513D01*
X185669364Y-97409999D01*
X185669364Y-97410000D01*
X186566988Y-97410000D01*
X186534075Y-97467007D01*
X186500000Y-97594174D01*
X186500000Y-97725826D01*
X186534075Y-97852993D01*
X186566988Y-97910000D01*
X185669364Y-97910000D01*
X185726567Y-98123486D01*
X185726570Y-98123492D01*
X185826399Y-98337578D01*
X185961894Y-98531082D01*
X186128917Y-98698105D01*
X186322421Y-98833600D01*
X186536507Y-98933429D01*
X186536516Y-98933433D01*
X186750000Y-98990634D01*
X186750000Y-98093012D01*
X186807007Y-98125925D01*
X186934174Y-98160000D01*
X187065826Y-98160000D01*
X187192993Y-98125925D01*
X187250000Y-98093012D01*
X187250000Y-98990633D01*
X187463483Y-98933433D01*
X187463492Y-98933429D01*
X187677578Y-98833600D01*
X187871082Y-98698105D01*
X188038105Y-98531082D01*
X188173600Y-98337578D01*
X188273429Y-98123492D01*
X188273432Y-98123486D01*
X188330636Y-97910000D01*
X187433012Y-97910000D01*
X187465925Y-97852993D01*
X187500000Y-97725826D01*
X187500000Y-97594174D01*
X187465925Y-97467007D01*
X187433012Y-97410000D01*
X188330636Y-97410000D01*
X188330635Y-97409999D01*
X188273432Y-97196513D01*
X188273429Y-97196507D01*
X188173600Y-96982422D01*
X188173599Y-96982420D01*
X188038113Y-96788926D01*
X188038108Y-96788920D01*
X187871082Y-96621894D01*
X187684968Y-96491575D01*
X187641344Y-96436998D01*
X187634151Y-96367499D01*
X187665673Y-96305145D01*
X187684968Y-96288425D01*
X187871082Y-96158105D01*
X188038105Y-95991082D01*
X188173600Y-95797578D01*
X188273429Y-95583492D01*
X188273432Y-95583486D01*
X188330636Y-95370000D01*
X187433012Y-95370000D01*
X187465925Y-95312993D01*
X187500000Y-95185826D01*
X187500000Y-95054174D01*
X187465925Y-94927007D01*
X187433012Y-94870000D01*
X188330636Y-94870000D01*
X188330635Y-94869999D01*
X188273432Y-94656513D01*
X188273429Y-94656507D01*
X188173600Y-94442422D01*
X188173599Y-94442420D01*
X188038113Y-94248926D01*
X188038108Y-94248920D01*
X187871082Y-94081894D01*
X187684968Y-93951575D01*
X187641344Y-93896998D01*
X187634151Y-93827499D01*
X187665673Y-93765145D01*
X187684968Y-93748425D01*
X187871082Y-93618105D01*
X188038105Y-93451082D01*
X188173600Y-93257578D01*
X188273429Y-93043492D01*
X188273432Y-93043486D01*
X188330636Y-92830000D01*
X187433012Y-92830000D01*
X187465925Y-92772993D01*
X187500000Y-92645826D01*
X187500000Y-92514174D01*
X187465925Y-92387007D01*
X187433012Y-92330000D01*
X188330636Y-92330000D01*
X188330635Y-92329999D01*
X188273432Y-92116513D01*
X188273429Y-92116507D01*
X188173600Y-91902422D01*
X188173599Y-91902420D01*
X188038113Y-91708926D01*
X188038108Y-91708920D01*
X187871082Y-91541894D01*
X187684968Y-91411575D01*
X187641344Y-91356998D01*
X187634151Y-91287499D01*
X187665673Y-91225145D01*
X187684968Y-91208425D01*
X187871082Y-91078105D01*
X187949192Y-90999995D01*
X197744592Y-90999995D01*
X197744592Y-91000004D01*
X197764196Y-91261620D01*
X197764197Y-91261625D01*
X197764197Y-91261629D01*
X197764198Y-91261630D01*
X197772914Y-91299818D01*
X197822576Y-91517402D01*
X197822578Y-91517411D01*
X197822580Y-91517416D01*
X197918432Y-91761643D01*
X198049614Y-91988857D01*
X198181736Y-92154533D01*
X198213198Y-92193985D01*
X198351545Y-92322351D01*
X198405521Y-92372433D01*
X198622296Y-92520228D01*
X198622301Y-92520230D01*
X198622302Y-92520231D01*
X198622303Y-92520232D01*
X198747843Y-92580688D01*
X198858673Y-92634061D01*
X198858674Y-92634061D01*
X198858677Y-92634063D01*
X199109385Y-92711396D01*
X199368818Y-92750500D01*
X199631182Y-92750500D01*
X199890615Y-92711396D01*
X200141323Y-92634063D01*
X200328111Y-92544110D01*
X200377696Y-92520232D01*
X200377696Y-92520231D01*
X200377704Y-92520228D01*
X200594479Y-92372433D01*
X200786805Y-92193981D01*
X200950386Y-91988857D01*
X201081568Y-91761643D01*
X201177420Y-91517416D01*
X201235802Y-91261630D01*
X201239789Y-91208425D01*
X201255408Y-91000004D01*
X201255408Y-90999995D01*
X201235803Y-90738379D01*
X201235802Y-90738374D01*
X201235802Y-90738370D01*
X201177420Y-90482584D01*
X201081568Y-90238357D01*
X200950386Y-90011143D01*
X200786805Y-89806019D01*
X200786804Y-89806018D01*
X200786801Y-89806014D01*
X200594479Y-89627567D01*
X200377704Y-89479772D01*
X200377700Y-89479770D01*
X200377697Y-89479768D01*
X200377696Y-89479767D01*
X200141325Y-89365938D01*
X200141327Y-89365938D01*
X199890623Y-89288606D01*
X199890619Y-89288605D01*
X199890615Y-89288604D01*
X199765823Y-89269794D01*
X199631187Y-89249500D01*
X199631182Y-89249500D01*
X199368818Y-89249500D01*
X199368812Y-89249500D01*
X199207247Y-89273853D01*
X199109385Y-89288604D01*
X199109382Y-89288605D01*
X199109376Y-89288606D01*
X198858673Y-89365938D01*
X198622303Y-89479767D01*
X198622302Y-89479768D01*
X198405520Y-89627567D01*
X198213198Y-89806014D01*
X198049614Y-90011143D01*
X197918432Y-90238356D01*
X197822582Y-90482578D01*
X197822576Y-90482597D01*
X197764197Y-90738374D01*
X197764196Y-90738379D01*
X197744592Y-90999995D01*
X187949192Y-90999995D01*
X188038105Y-90911082D01*
X188173600Y-90717578D01*
X188273429Y-90503492D01*
X188273432Y-90503486D01*
X188330636Y-90290000D01*
X187433012Y-90290000D01*
X187465925Y-90232993D01*
X187500000Y-90105826D01*
X187500000Y-89974174D01*
X187465925Y-89847007D01*
X187433012Y-89790000D01*
X188330636Y-89790000D01*
X188330635Y-89789999D01*
X188273432Y-89576513D01*
X188273429Y-89576507D01*
X188173600Y-89362422D01*
X188173599Y-89362420D01*
X188038113Y-89168926D01*
X188038108Y-89168920D01*
X187915665Y-89046477D01*
X187882180Y-88985154D01*
X187887164Y-88915462D01*
X187929036Y-88859529D01*
X187960013Y-88842614D01*
X188092086Y-88793354D01*
X188092093Y-88793350D01*
X188207187Y-88707190D01*
X188207190Y-88707187D01*
X188293350Y-88592093D01*
X188293354Y-88592086D01*
X188343596Y-88457379D01*
X188343598Y-88457372D01*
X188349999Y-88397844D01*
X188350000Y-88397827D01*
X188350000Y-87750000D01*
X187433012Y-87750000D01*
X187465925Y-87692993D01*
X187500000Y-87565826D01*
X187500000Y-87434174D01*
X187465925Y-87307007D01*
X187433012Y-87250000D01*
X188350000Y-87250000D01*
X188350000Y-86602172D01*
X188349999Y-86602155D01*
X188343598Y-86542627D01*
X188343596Y-86542620D01*
X188293354Y-86407913D01*
X188293350Y-86407906D01*
X188207190Y-86292812D01*
X188207187Y-86292809D01*
X188092093Y-86206649D01*
X188092086Y-86206645D01*
X187957379Y-86156403D01*
X187957372Y-86156401D01*
X187897844Y-86150000D01*
X187250000Y-86150000D01*
X187250000Y-87066988D01*
X187192993Y-87034075D01*
X187065826Y-87000000D01*
X186934174Y-87000000D01*
X186807007Y-87034075D01*
X186750000Y-87066988D01*
X186750000Y-86150000D01*
X186102155Y-86150000D01*
X186042627Y-86156401D01*
X186042620Y-86156403D01*
X185907913Y-86206645D01*
X185907906Y-86206649D01*
X185792812Y-86292809D01*
X185792809Y-86292812D01*
X185706649Y-86407906D01*
X185706645Y-86407913D01*
X185656403Y-86542620D01*
X185656401Y-86542627D01*
X185650000Y-86602155D01*
X184086300Y-86602155D01*
X184086300Y-85999995D01*
X197744592Y-85999995D01*
X197744592Y-86000004D01*
X197764196Y-86261620D01*
X197764197Y-86261625D01*
X197822576Y-86517402D01*
X197822578Y-86517411D01*
X197822580Y-86517416D01*
X197918432Y-86761643D01*
X198049614Y-86988857D01*
X198138169Y-87099901D01*
X198213198Y-87193985D01*
X198335008Y-87307007D01*
X198405521Y-87372433D01*
X198622296Y-87520228D01*
X198622301Y-87520230D01*
X198622302Y-87520231D01*
X198622303Y-87520232D01*
X198716981Y-87565826D01*
X198858673Y-87634061D01*
X198858674Y-87634061D01*
X198858677Y-87634063D01*
X199109385Y-87711396D01*
X199368818Y-87750500D01*
X199631182Y-87750500D01*
X199890615Y-87711396D01*
X200141323Y-87634063D01*
X200377704Y-87520228D01*
X200594479Y-87372433D01*
X200786805Y-87193981D01*
X200950386Y-86988857D01*
X201081568Y-86761643D01*
X201177420Y-86517416D01*
X201235802Y-86261630D01*
X201239922Y-86206649D01*
X201255408Y-86000004D01*
X201255408Y-85999995D01*
X201235803Y-85738379D01*
X201235802Y-85738374D01*
X201235802Y-85738370D01*
X201177420Y-85482584D01*
X201081568Y-85238357D01*
X200950386Y-85011143D01*
X200786805Y-84806019D01*
X200786804Y-84806018D01*
X200786801Y-84806014D01*
X200594479Y-84627567D01*
X200377704Y-84479772D01*
X200377700Y-84479770D01*
X200377697Y-84479768D01*
X200377696Y-84479767D01*
X200141325Y-84365938D01*
X200141327Y-84365938D01*
X199890623Y-84288606D01*
X199890619Y-84288605D01*
X199890615Y-84288604D01*
X199765823Y-84269794D01*
X199631187Y-84249500D01*
X199631182Y-84249500D01*
X199368818Y-84249500D01*
X199368812Y-84249500D01*
X199207247Y-84273853D01*
X199109385Y-84288604D01*
X199109382Y-84288605D01*
X199109376Y-84288606D01*
X198858673Y-84365938D01*
X198622303Y-84479767D01*
X198622302Y-84479768D01*
X198405520Y-84627567D01*
X198213198Y-84806014D01*
X198049614Y-85011143D01*
X197918432Y-85238356D01*
X197822582Y-85482578D01*
X197822576Y-85482597D01*
X197764197Y-85738374D01*
X197764196Y-85738379D01*
X197744592Y-85999995D01*
X184086300Y-85999995D01*
X184086300Y-80999995D01*
X197744592Y-80999995D01*
X197744592Y-81000004D01*
X197764196Y-81261620D01*
X197764197Y-81261625D01*
X197822576Y-81517402D01*
X197822578Y-81517411D01*
X197822580Y-81517416D01*
X197918432Y-81761643D01*
X198049614Y-81988857D01*
X198181736Y-82154533D01*
X198213198Y-82193985D01*
X198394753Y-82362441D01*
X198405521Y-82372433D01*
X198622296Y-82520228D01*
X198622301Y-82520230D01*
X198622302Y-82520231D01*
X198622303Y-82520232D01*
X198747843Y-82580688D01*
X198858673Y-82634061D01*
X198858674Y-82634061D01*
X198858677Y-82634063D01*
X199109385Y-82711396D01*
X199368818Y-82750500D01*
X199631182Y-82750500D01*
X199890615Y-82711396D01*
X200141323Y-82634063D01*
X200377704Y-82520228D01*
X200594479Y-82372433D01*
X200786805Y-82193981D01*
X200950386Y-81988857D01*
X201081568Y-81761643D01*
X201177420Y-81517416D01*
X201235802Y-81261630D01*
X201255408Y-81000000D01*
X201235802Y-80738370D01*
X201177420Y-80482584D01*
X201081568Y-80238357D01*
X200950386Y-80011143D01*
X200786805Y-79806019D01*
X200786804Y-79806018D01*
X200786801Y-79806014D01*
X200594479Y-79627567D01*
X200530625Y-79584032D01*
X200377704Y-79479772D01*
X200377700Y-79479770D01*
X200377697Y-79479768D01*
X200377696Y-79479767D01*
X200141325Y-79365938D01*
X200141327Y-79365938D01*
X199890623Y-79288606D01*
X199890619Y-79288605D01*
X199890615Y-79288604D01*
X199765823Y-79269794D01*
X199631187Y-79249500D01*
X199631182Y-79249500D01*
X199368818Y-79249500D01*
X199368812Y-79249500D01*
X199207247Y-79273853D01*
X199109385Y-79288604D01*
X199109382Y-79288605D01*
X199109376Y-79288606D01*
X198858673Y-79365938D01*
X198622303Y-79479767D01*
X198622302Y-79479768D01*
X198405520Y-79627567D01*
X198213198Y-79806014D01*
X198049614Y-80011143D01*
X197918432Y-80238356D01*
X197822582Y-80482578D01*
X197822576Y-80482597D01*
X197764197Y-80738374D01*
X197764196Y-80738379D01*
X197744592Y-80999995D01*
X184086300Y-80999995D01*
X184086300Y-54068260D01*
X184086301Y-54068247D01*
X184086301Y-53900144D01*
X184078876Y-53872433D01*
X184045377Y-53747416D01*
X184014527Y-53693981D01*
X183966324Y-53610490D01*
X183966318Y-53610482D01*
X181645191Y-51289355D01*
X181611706Y-51228032D01*
X181616690Y-51158340D01*
X181645190Y-51113993D01*
X181691966Y-51067219D01*
X181691968Y-51067215D01*
X181691971Y-51067213D01*
X181755503Y-50979767D01*
X181812287Y-50901610D01*
X181905220Y-50719219D01*
X181968477Y-50524534D01*
X182000500Y-50322352D01*
X182000500Y-50117648D01*
X181968477Y-49915466D01*
X181962760Y-49897872D01*
X181905218Y-49720776D01*
X181871503Y-49654607D01*
X181812287Y-49538390D01*
X181784959Y-49500776D01*
X181691971Y-49372786D01*
X181547213Y-49228028D01*
X181381613Y-49107715D01*
X181381612Y-49107714D01*
X181381610Y-49107713D01*
X181324653Y-49078691D01*
X181199223Y-49014781D01*
X181004534Y-48951522D01*
X180829995Y-48923878D01*
X180802352Y-48919500D01*
X180197648Y-48919500D01*
X180173329Y-48923351D01*
X179995465Y-48951522D01*
X179800776Y-49014781D01*
X179618386Y-49107715D01*
X179452786Y-49228028D01*
X179308028Y-49372786D01*
X179187715Y-49538386D01*
X179094781Y-49720776D01*
X179031522Y-49915465D01*
X178999500Y-50117648D01*
X178999500Y-50322351D01*
X179031522Y-50524534D01*
X179094781Y-50719223D01*
X179140630Y-50809205D01*
X179153526Y-50877874D01*
X179127250Y-50942615D01*
X179070143Y-50982872D01*
X179030145Y-50989500D01*
X159264500Y-50989500D01*
X159197461Y-50969815D01*
X159151706Y-50917011D01*
X159140500Y-50865500D01*
X159140499Y-49172129D01*
X159140498Y-49172123D01*
X159140497Y-49172116D01*
X159134091Y-49112517D01*
X159132299Y-49107713D01*
X159083797Y-48977671D01*
X159083793Y-48977664D01*
X158997547Y-48862455D01*
X158997544Y-48862452D01*
X158882335Y-48776206D01*
X158882328Y-48776202D01*
X158747482Y-48725908D01*
X158747483Y-48725908D01*
X158687883Y-48719501D01*
X158687881Y-48719500D01*
X158687873Y-48719500D01*
X158687864Y-48719500D01*
X156592129Y-48719500D01*
X156592123Y-48719501D01*
X156532516Y-48725908D01*
X156397671Y-48776202D01*
X156397664Y-48776206D01*
X156282455Y-48862452D01*
X156282452Y-48862455D01*
X156196206Y-48977664D01*
X156196202Y-48977671D01*
X156145908Y-49112517D01*
X156143592Y-49134063D01*
X156139501Y-49172123D01*
X156139500Y-49172135D01*
X156139500Y-51267870D01*
X156139501Y-51267876D01*
X156145908Y-51327483D01*
X156199303Y-51470641D01*
X156197708Y-51471235D01*
X156210340Y-51529283D01*
X156185927Y-51594749D01*
X156174336Y-51608126D01*
X150176875Y-57605588D01*
X150115552Y-57639073D01*
X150045860Y-57634089D01*
X150001514Y-57605589D01*
X146005196Y-53609352D01*
X145971710Y-53548029D01*
X145976694Y-53478338D01*
X146005194Y-53433989D01*
X146051966Y-53387219D01*
X146051968Y-53387215D01*
X146051971Y-53387213D01*
X146104732Y-53314590D01*
X146172287Y-53221610D01*
X146265220Y-53039219D01*
X146328477Y-52844534D01*
X146360500Y-52642352D01*
X146360500Y-52437648D01*
X146332487Y-52260781D01*
X146328477Y-52235465D01*
X146265218Y-52040776D01*
X146231503Y-51974607D01*
X146172287Y-51858390D01*
X146164556Y-51847749D01*
X146051971Y-51692786D01*
X145907213Y-51548028D01*
X145741614Y-51427715D01*
X145735006Y-51424348D01*
X145648917Y-51380483D01*
X145598123Y-51332511D01*
X145581328Y-51264690D01*
X145603865Y-51198555D01*
X145648917Y-51159516D01*
X145741610Y-51112287D01*
X145791082Y-51076344D01*
X145907213Y-50991971D01*
X145907215Y-50991968D01*
X145907219Y-50991966D01*
X146051966Y-50847219D01*
X146051968Y-50847215D01*
X146051971Y-50847213D01*
X146122962Y-50749500D01*
X146172287Y-50681610D01*
X146265220Y-50499219D01*
X146328477Y-50304534D01*
X146360500Y-50102352D01*
X146360500Y-49897648D01*
X146328477Y-49695466D01*
X146265220Y-49500781D01*
X146265218Y-49500778D01*
X146265218Y-49500776D01*
X146200003Y-49372786D01*
X146172287Y-49318390D01*
X146164556Y-49307749D01*
X146051971Y-49152786D01*
X145907213Y-49008028D01*
X145741613Y-48887715D01*
X145741612Y-48887714D01*
X145741610Y-48887713D01*
X145684653Y-48858691D01*
X145559223Y-48794781D01*
X145364534Y-48731522D01*
X145189995Y-48703878D01*
X145162352Y-48699500D01*
X144557648Y-48699500D01*
X144533329Y-48703351D01*
X144355465Y-48731522D01*
X144160776Y-48794781D01*
X143978386Y-48887715D01*
X143812786Y-49008028D01*
X143668028Y-49152786D01*
X143547715Y-49318386D01*
X143454781Y-49500776D01*
X143391522Y-49695465D01*
X143359500Y-49897648D01*
X143359500Y-50102351D01*
X143391522Y-50304534D01*
X143454781Y-50499223D01*
X143547715Y-50681613D01*
X143668028Y-50847213D01*
X143812786Y-50991971D01*
X143928918Y-51076344D01*
X143978390Y-51112287D01*
X144068774Y-51158340D01*
X144071080Y-51159515D01*
X144121876Y-51207490D01*
X144138671Y-51275311D01*
X144116134Y-51341446D01*
X144071080Y-51380485D01*
X143978386Y-51427715D01*
X143812786Y-51548028D01*
X143668028Y-51692786D01*
X143547715Y-51858386D01*
X143454781Y-52040776D01*
X143391522Y-52235465D01*
X143359500Y-52437648D01*
X143359500Y-52642351D01*
X143391522Y-52844534D01*
X143454781Y-53039223D01*
X143547715Y-53221613D01*
X143668028Y-53387213D01*
X143812786Y-53531971D01*
X143967749Y-53644556D01*
X143978390Y-53652287D01*
X144060219Y-53693981D01*
X144071080Y-53699515D01*
X144121876Y-53747490D01*
X144138671Y-53815311D01*
X144116134Y-53881446D01*
X144071080Y-53920485D01*
X143978386Y-53967715D01*
X143812786Y-54088028D01*
X143668028Y-54232786D01*
X143547715Y-54398386D01*
X143454781Y-54580776D01*
X143391522Y-54775465D01*
X143359500Y-54977647D01*
X143359500Y-55182351D01*
X143391522Y-55384534D01*
X143454781Y-55579223D01*
X143502535Y-55672943D01*
X143529893Y-55726637D01*
X143547715Y-55761613D01*
X143668028Y-55927213D01*
X143714808Y-55973993D01*
X143748293Y-56035316D01*
X143743309Y-56105008D01*
X143714808Y-56149355D01*
X143141486Y-56722678D01*
X143029681Y-56834482D01*
X143029677Y-56834487D01*
X142985022Y-56911834D01*
X142985022Y-56911835D01*
X142950623Y-56971414D01*
X142936981Y-57022324D01*
X142909699Y-57124143D01*
X142909699Y-57124145D01*
X142909699Y-57292246D01*
X142909700Y-57292259D01*
X142909700Y-94954930D01*
X142909699Y-94954948D01*
X142909699Y-95120654D01*
X142909698Y-95120654D01*
X142909699Y-95120657D01*
X142950623Y-95273385D01*
X142950624Y-95273386D01*
X142952319Y-95276322D01*
X142952317Y-95276322D01*
X142952324Y-95276330D01*
X142973491Y-95312993D01*
X143029679Y-95410314D01*
X143029681Y-95410317D01*
X143148549Y-95529185D01*
X143148555Y-95529190D01*
X143672409Y-96053044D01*
X143705894Y-96114367D01*
X143700910Y-96184059D01*
X143672409Y-96228406D01*
X143668032Y-96232782D01*
X143668028Y-96232786D01*
X143547715Y-96398386D01*
X143454781Y-96580776D01*
X143391522Y-96775465D01*
X143359500Y-96977648D01*
X143359500Y-97182351D01*
X143391522Y-97384534D01*
X143454781Y-97579223D01*
X143482723Y-97634061D01*
X143542052Y-97750500D01*
X143547715Y-97761613D01*
X143668028Y-97927213D01*
X143812786Y-98071971D01*
X143933950Y-98160000D01*
X143978390Y-98192287D01*
X144049629Y-98228585D01*
X144071080Y-98239515D01*
X144121876Y-98287490D01*
X144138671Y-98355311D01*
X144116134Y-98421446D01*
X144071080Y-98460485D01*
X143978386Y-98507715D01*
X143812786Y-98628028D01*
X143668028Y-98772786D01*
X143547715Y-98938386D01*
X143454781Y-99120776D01*
X143391522Y-99315465D01*
X143359500Y-99517648D01*
X143359500Y-99722351D01*
X143391522Y-99924534D01*
X143454781Y-100119223D01*
X143547715Y-100301613D01*
X143668028Y-100467213D01*
X143812786Y-100611971D01*
X143967749Y-100724556D01*
X143978390Y-100732287D01*
X144069840Y-100778883D01*
X144071080Y-100779515D01*
X144121876Y-100827490D01*
X144138671Y-100895311D01*
X144116134Y-100961446D01*
X144071080Y-101000485D01*
X143978386Y-101047715D01*
X143812786Y-101168028D01*
X143668028Y-101312786D01*
X143547715Y-101478386D01*
X143454781Y-101660776D01*
X143391522Y-101855465D01*
X143359500Y-102057648D01*
X143359500Y-102262351D01*
X143391522Y-102464534D01*
X143454781Y-102659223D01*
X143512910Y-102773305D01*
X143525806Y-102841974D01*
X143499530Y-102906715D01*
X143442424Y-102946972D01*
X143402425Y-102953600D01*
X124040700Y-102953600D01*
X123973661Y-102933915D01*
X123927906Y-102881111D01*
X123916700Y-102829600D01*
X123916700Y-71789460D01*
X123916701Y-71789447D01*
X123916701Y-71621344D01*
X123907583Y-71587315D01*
X123875777Y-71468616D01*
X123838549Y-71404135D01*
X123796724Y-71331690D01*
X123796718Y-71331682D01*
X122782139Y-70317103D01*
X121757215Y-69292180D01*
X121723731Y-69230858D01*
X121728715Y-69161166D01*
X121770587Y-69105233D01*
X121836051Y-69080816D01*
X121844897Y-69080500D01*
X122302351Y-69080500D01*
X122302352Y-69080500D01*
X122504534Y-69048477D01*
X122699219Y-68985220D01*
X122881610Y-68892287D01*
X122974590Y-68824732D01*
X123047213Y-68771971D01*
X123047215Y-68771968D01*
X123047219Y-68771966D01*
X123191966Y-68627219D01*
X123191968Y-68627215D01*
X123191971Y-68627213D01*
X123244732Y-68554590D01*
X123312287Y-68461610D01*
X123405220Y-68279219D01*
X123468477Y-68084534D01*
X123500500Y-67882352D01*
X123500500Y-67677648D01*
X123468477Y-67475466D01*
X123467753Y-67473239D01*
X123417440Y-67318390D01*
X123405220Y-67280781D01*
X123405218Y-67280778D01*
X123405218Y-67280776D01*
X123342491Y-67157669D01*
X123312287Y-67098390D01*
X123304556Y-67087749D01*
X123191971Y-66932786D01*
X123187591Y-66928406D01*
X123154106Y-66867083D01*
X123159090Y-66797391D01*
X123187591Y-66753044D01*
X123429492Y-66511143D01*
X123782320Y-66158316D01*
X123861377Y-66021384D01*
X123902301Y-65868657D01*
X123902301Y-65710542D01*
X123902301Y-65702947D01*
X123902300Y-65702929D01*
X123902300Y-54704259D01*
X123902301Y-54704246D01*
X123902301Y-54536145D01*
X123902301Y-54536143D01*
X123861377Y-54383415D01*
X123822113Y-54315408D01*
X123782320Y-54246484D01*
X123670516Y-54134680D01*
X123670515Y-54134679D01*
X123666185Y-54130349D01*
X123666174Y-54130339D01*
X123145191Y-53609356D01*
X123111706Y-53548033D01*
X123116690Y-53478341D01*
X123145191Y-53433994D01*
X123145197Y-53433988D01*
X123191966Y-53387219D01*
X123191968Y-53387215D01*
X123191971Y-53387213D01*
X123244732Y-53314590D01*
X123312287Y-53221610D01*
X123405220Y-53039219D01*
X123468477Y-52844534D01*
X123500500Y-52642352D01*
X123500500Y-52437648D01*
X123472487Y-52260781D01*
X123468477Y-52235465D01*
X123405218Y-52040776D01*
X123371503Y-51974607D01*
X123312287Y-51858390D01*
X123304556Y-51847749D01*
X123191971Y-51692786D01*
X123160736Y-51661551D01*
X123127251Y-51600228D01*
X123132235Y-51530536D01*
X123174107Y-51474603D01*
X123205080Y-51457689D01*
X123242331Y-51443796D01*
X123357546Y-51357546D01*
X123443796Y-51242331D01*
X123494091Y-51107483D01*
X123500500Y-51047873D01*
X123500499Y-48952128D01*
X123494091Y-48892517D01*
X123492299Y-48887713D01*
X123443797Y-48757671D01*
X123443793Y-48757664D01*
X123357547Y-48642455D01*
X123357544Y-48642452D01*
X123242335Y-48556206D01*
X123242328Y-48556202D01*
X123107482Y-48505908D01*
X123107483Y-48505908D01*
X123047883Y-48499501D01*
X123047881Y-48499500D01*
X123047873Y-48499500D01*
X123047864Y-48499500D01*
X120952129Y-48499500D01*
X120952123Y-48499501D01*
X120892516Y-48505908D01*
X120757671Y-48556202D01*
X120757664Y-48556206D01*
X120642455Y-48642452D01*
X120642452Y-48642455D01*
X120556206Y-48757664D01*
X120556202Y-48757671D01*
X120505908Y-48892517D01*
X120499565Y-48951522D01*
X120499501Y-48952123D01*
X120499500Y-48952135D01*
X120499500Y-51047870D01*
X120499501Y-51047876D01*
X120505908Y-51107483D01*
X120556202Y-51242328D01*
X120556206Y-51242335D01*
X120642452Y-51357544D01*
X120642455Y-51357547D01*
X120757664Y-51443793D01*
X120757673Y-51443798D01*
X120794914Y-51457688D01*
X120850848Y-51499559D01*
X120875266Y-51565023D01*
X120860415Y-51633296D01*
X120839265Y-51661550D01*
X120808027Y-51692787D01*
X120687715Y-51858386D01*
X120594781Y-52040776D01*
X120531522Y-52235465D01*
X120499500Y-52437648D01*
X120499500Y-52642351D01*
X120531522Y-52844534D01*
X120594781Y-53039223D01*
X120687715Y-53221613D01*
X120808028Y-53387213D01*
X120952786Y-53531971D01*
X121107749Y-53644556D01*
X121118390Y-53652287D01*
X121200219Y-53693981D01*
X121211080Y-53699515D01*
X121261876Y-53747490D01*
X121278671Y-53815311D01*
X121256134Y-53881446D01*
X121211080Y-53920485D01*
X121118386Y-53967715D01*
X120952786Y-54088028D01*
X120808028Y-54232786D01*
X120687715Y-54398386D01*
X120594781Y-54580776D01*
X120531522Y-54775465D01*
X120499500Y-54977647D01*
X120499500Y-55182351D01*
X120531522Y-55384534D01*
X120594781Y-55579223D01*
X120642535Y-55672943D01*
X120669893Y-55726637D01*
X120687715Y-55761613D01*
X120808028Y-55927213D01*
X120854808Y-55973993D01*
X120888293Y-56035316D01*
X120883309Y-56105008D01*
X120854808Y-56149355D01*
X120191486Y-56812678D01*
X120079681Y-56924482D01*
X120079680Y-56924484D01*
X120042596Y-56988716D01*
X120000623Y-57061415D01*
X119959699Y-57214143D01*
X119959699Y-57214145D01*
X119959699Y-57382246D01*
X119959700Y-57382259D01*
X119959700Y-58629501D01*
X119940015Y-58696540D01*
X119923381Y-58717182D01*
X117205133Y-61435429D01*
X117143810Y-61468914D01*
X117074118Y-61463930D01*
X117018185Y-61422058D01*
X116993876Y-61357988D01*
X116985109Y-61252186D01*
X116985107Y-61252175D01*
X116924063Y-61011118D01*
X116824173Y-60783393D01*
X116688166Y-60575217D01*
X116666557Y-60551744D01*
X116519744Y-60392262D01*
X116323509Y-60239526D01*
X116323507Y-60239525D01*
X116323506Y-60239524D01*
X116165482Y-60154006D01*
X116115892Y-60104786D01*
X116100500Y-60044951D01*
X116100500Y-56455048D01*
X116120185Y-56388009D01*
X116165481Y-56345993D01*
X116323509Y-56260474D01*
X116519744Y-56107738D01*
X116688164Y-55924785D01*
X116824173Y-55716607D01*
X116924063Y-55488881D01*
X116985108Y-55247821D01*
X116988052Y-55212292D01*
X117005643Y-55000005D01*
X117005643Y-54999994D01*
X116985109Y-54752187D01*
X116985107Y-54752175D01*
X116924063Y-54511118D01*
X116824173Y-54283393D01*
X116688166Y-54075217D01*
X116641652Y-54024690D01*
X116519744Y-53892262D01*
X116323509Y-53739526D01*
X116323507Y-53739525D01*
X116323506Y-53739524D01*
X116104811Y-53621172D01*
X116104802Y-53621169D01*
X115869616Y-53540429D01*
X115624335Y-53499500D01*
X115375665Y-53499500D01*
X115130383Y-53540429D01*
X114895197Y-53621169D01*
X114895188Y-53621172D01*
X114676493Y-53739524D01*
X114480257Y-53892261D01*
X114311833Y-54075217D01*
X114175826Y-54283393D01*
X114075936Y-54511118D01*
X114014892Y-54752175D01*
X114014890Y-54752187D01*
X113994357Y-54999994D01*
X113994357Y-55000005D01*
X114014890Y-55247812D01*
X114014892Y-55247824D01*
X114075936Y-55488881D01*
X114175826Y-55716606D01*
X114311833Y-55924782D01*
X114327839Y-55942169D01*
X114480256Y-56107738D01*
X114676491Y-56260474D01*
X114676494Y-56260476D01*
X114676496Y-56260477D01*
X114734683Y-56291966D01*
X114834517Y-56345993D01*
X114884108Y-56395212D01*
X114899500Y-56455048D01*
X114899500Y-60044951D01*
X114879815Y-60111990D01*
X114834518Y-60154006D01*
X114676493Y-60239524D01*
X114480257Y-60392261D01*
X114311833Y-60575217D01*
X114175826Y-60783393D01*
X114075936Y-61011118D01*
X114014892Y-61252175D01*
X114014890Y-61252187D01*
X113994357Y-61499994D01*
X113994357Y-61500005D01*
X114014890Y-61747812D01*
X114014892Y-61747824D01*
X114075936Y-61988881D01*
X114175826Y-62216606D01*
X114311833Y-62424782D01*
X114344245Y-62459991D01*
X114480256Y-62607738D01*
X114676491Y-62760474D01*
X114676494Y-62760476D01*
X114676496Y-62760477D01*
X114678470Y-62761545D01*
X114834517Y-62845993D01*
X114884108Y-62895212D01*
X114899500Y-62955048D01*
X114899500Y-90540500D01*
X114879815Y-90607539D01*
X114827011Y-90653294D01*
X114775501Y-90664500D01*
X114602130Y-90664500D01*
X114602123Y-90664501D01*
X114542516Y-90670908D01*
X114407671Y-90721202D01*
X114407664Y-90721206D01*
X114292455Y-90807452D01*
X114292452Y-90807455D01*
X114206206Y-90922664D01*
X114206202Y-90922671D01*
X114155908Y-91057517D01*
X114153695Y-91078105D01*
X114149501Y-91117123D01*
X114149500Y-91117135D01*
X114149500Y-92912870D01*
X114149501Y-92912876D01*
X114155908Y-92972483D01*
X114206202Y-93107328D01*
X114206206Y-93107335D01*
X114292452Y-93222544D01*
X114292455Y-93222547D01*
X114407664Y-93308793D01*
X114407671Y-93308797D01*
X114539081Y-93357810D01*
X114595015Y-93399681D01*
X114619432Y-93465145D01*
X114604580Y-93533418D01*
X114583430Y-93561673D01*
X114461503Y-93683600D01*
X114325965Y-93877169D01*
X114325964Y-93877171D01*
X114226098Y-94091335D01*
X114226094Y-94091344D01*
X114164938Y-94319586D01*
X114164936Y-94319596D01*
X114144341Y-94554999D01*
X114144341Y-94555000D01*
X114164936Y-94790403D01*
X114164938Y-94790413D01*
X114226094Y-95018655D01*
X114226096Y-95018659D01*
X114226097Y-95018663D01*
X114273658Y-95120657D01*
X114325965Y-95232830D01*
X114325967Y-95232834D01*
X114461501Y-95426395D01*
X114461506Y-95426402D01*
X114474353Y-95439249D01*
X114507838Y-95500572D01*
X114502854Y-95570264D01*
X114474353Y-95614611D01*
X113861381Y-96227582D01*
X113861375Y-96227590D01*
X113819860Y-96299498D01*
X113819860Y-96299500D01*
X113782323Y-96364514D01*
X113782323Y-96364515D01*
X113741399Y-96517243D01*
X113741399Y-96517245D01*
X113741399Y-96685346D01*
X113741400Y-96685359D01*
X113741400Y-107686430D01*
X113741399Y-107686448D01*
X113741399Y-107852154D01*
X113741398Y-107852154D01*
X108500500Y-107852154D01*
X108500500Y-61499994D01*
X109494859Y-61499994D01*
X109494859Y-61500005D01*
X109515385Y-61747729D01*
X109515387Y-61747738D01*
X109576412Y-61988717D01*
X109676266Y-62216364D01*
X109776564Y-62369882D01*
X110476212Y-61670234D01*
X110487482Y-61712292D01*
X110559890Y-61837708D01*
X110662292Y-61940110D01*
X110787708Y-62012518D01*
X110829765Y-62023787D01*
X110129942Y-62723609D01*
X110176768Y-62760055D01*
X110176770Y-62760056D01*
X110395385Y-62878364D01*
X110395396Y-62878369D01*
X110630506Y-62959083D01*
X110875707Y-63000000D01*
X111124293Y-63000000D01*
X111369493Y-62959083D01*
X111604603Y-62878369D01*
X111604614Y-62878364D01*
X111823228Y-62760057D01*
X111823231Y-62760055D01*
X111870056Y-62723609D01*
X111170234Y-62023787D01*
X111212292Y-62012518D01*
X111337708Y-61940110D01*
X111440110Y-61837708D01*
X111512518Y-61712292D01*
X111523787Y-61670234D01*
X112223434Y-62369882D01*
X112323731Y-62216369D01*
X112423587Y-61988717D01*
X112484612Y-61747738D01*
X112484614Y-61747729D01*
X112505141Y-61500005D01*
X112505141Y-61499994D01*
X112484614Y-61252270D01*
X112484612Y-61252261D01*
X112423587Y-61011282D01*
X112323731Y-60783630D01*
X112223434Y-60630116D01*
X111523787Y-61329764D01*
X111512518Y-61287708D01*
X111440110Y-61162292D01*
X111337708Y-61059890D01*
X111212292Y-60987482D01*
X111170235Y-60976212D01*
X111870057Y-60276390D01*
X111870056Y-60276389D01*
X111823229Y-60239943D01*
X111604614Y-60121635D01*
X111604603Y-60121630D01*
X111369493Y-60040916D01*
X111124293Y-60000000D01*
X110875707Y-60000000D01*
X110630506Y-60040916D01*
X110395396Y-60121630D01*
X110395390Y-60121632D01*
X110176761Y-60239949D01*
X110129942Y-60276388D01*
X110129942Y-60276390D01*
X110829765Y-60976212D01*
X110787708Y-60987482D01*
X110662292Y-61059890D01*
X110559890Y-61162292D01*
X110487482Y-61287708D01*
X110476212Y-61329764D01*
X109776564Y-60630116D01*
X109676267Y-60783632D01*
X109576412Y-61011282D01*
X109515387Y-61252261D01*
X109515385Y-61252270D01*
X109494859Y-61499994D01*
X108500500Y-61499994D01*
X108500500Y-54999994D01*
X109494859Y-54999994D01*
X109494859Y-55000005D01*
X109515385Y-55247729D01*
X109515387Y-55247738D01*
X109576412Y-55488717D01*
X109676266Y-55716364D01*
X109776564Y-55869882D01*
X110476212Y-55170234D01*
X110487482Y-55212292D01*
X110559890Y-55337708D01*
X110662292Y-55440110D01*
X110787708Y-55512518D01*
X110829765Y-55523787D01*
X110129942Y-56223609D01*
X110176768Y-56260055D01*
X110176770Y-56260056D01*
X110395385Y-56378364D01*
X110395396Y-56378369D01*
X110630506Y-56459083D01*
X110875707Y-56500000D01*
X111124293Y-56500000D01*
X111369493Y-56459083D01*
X111604603Y-56378369D01*
X111604614Y-56378364D01*
X111823228Y-56260057D01*
X111823231Y-56260055D01*
X111870056Y-56223609D01*
X111170234Y-55523787D01*
X111212292Y-55512518D01*
X111337708Y-55440110D01*
X111440110Y-55337708D01*
X111512518Y-55212292D01*
X111523787Y-55170234D01*
X112223434Y-55869882D01*
X112323731Y-55716369D01*
X112423587Y-55488717D01*
X112484612Y-55247738D01*
X112484614Y-55247729D01*
X112505141Y-55000005D01*
X112505141Y-54999994D01*
X112484614Y-54752270D01*
X112484612Y-54752261D01*
X112423587Y-54511282D01*
X112323731Y-54283630D01*
X112223434Y-54130116D01*
X111523787Y-54829764D01*
X111512518Y-54787708D01*
X111440110Y-54662292D01*
X111337708Y-54559890D01*
X111212292Y-54487482D01*
X111170235Y-54476212D01*
X111870057Y-53776390D01*
X111870056Y-53776389D01*
X111823229Y-53739943D01*
X111604614Y-53621635D01*
X111604603Y-53621630D01*
X111369493Y-53540916D01*
X111124293Y-53500000D01*
X110875707Y-53500000D01*
X110630506Y-53540916D01*
X110395396Y-53621630D01*
X110395390Y-53621632D01*
X110176761Y-53739949D01*
X110129942Y-53776388D01*
X110129942Y-53776390D01*
X110829765Y-54476212D01*
X110787708Y-54487482D01*
X110662292Y-54559890D01*
X110559890Y-54662292D01*
X110487482Y-54787708D01*
X110476212Y-54829764D01*
X109776564Y-54130116D01*
X109676267Y-54283632D01*
X109576412Y-54511282D01*
X109515387Y-54752261D01*
X109515385Y-54752270D01*
X109494859Y-54999994D01*
X108500500Y-54999994D01*
X108500500Y-30999993D01*
X182054700Y-30999993D01*
X182054700Y-31000006D01*
X182073864Y-31231297D01*
X182073866Y-31231308D01*
X182130842Y-31456300D01*
X182224075Y-31668848D01*
X182351016Y-31863147D01*
X182351019Y-31863151D01*
X182351021Y-31863153D01*
X182508216Y-32033913D01*
X182508219Y-32033915D01*
X182508222Y-32033918D01*
X182691365Y-32176464D01*
X182691376Y-32176471D01*
X182794517Y-32232288D01*
X182844108Y-32281507D01*
X182859500Y-32341343D01*
X182859500Y-41683330D01*
X182859499Y-41683348D01*
X182859499Y-41849054D01*
X182859498Y-41849054D01*
X182859499Y-41849057D01*
X182900423Y-42001785D01*
X182900424Y-42001787D01*
X182900423Y-42001787D01*
X182913460Y-42024366D01*
X182913461Y-42024368D01*
X182979475Y-42138709D01*
X182979481Y-42138717D01*
X183098349Y-42257585D01*
X183098355Y-42257590D01*
X183708058Y-42867293D01*
X183741543Y-42928616D01*
X183740152Y-42987067D01*
X183714366Y-43083302D01*
X183714364Y-43083313D01*
X183694532Y-43309998D01*
X183694532Y-43310001D01*
X183714364Y-43536686D01*
X183714366Y-43536697D01*
X183773258Y-43756488D01*
X183773261Y-43756497D01*
X183869431Y-43962732D01*
X183869432Y-43962734D01*
X183999954Y-44149141D01*
X184160858Y-44310045D01*
X184160861Y-44310047D01*
X184347266Y-44440568D01*
X184553504Y-44536739D01*
X184773308Y-44595635D01*
X184935230Y-44609801D01*
X184999998Y-44615468D01*
X185000000Y-44615468D01*
X185000002Y-44615468D01*
X185056673Y-44610509D01*
X185226692Y-44595635D01*
X185446496Y-44536739D01*
X185652734Y-44440568D01*
X185839139Y-44310047D01*
X186000047Y-44149139D01*
X186130568Y-43962734D01*
X186163118Y-43892929D01*
X186209290Y-43840491D01*
X186276484Y-43821339D01*
X186343365Y-43841555D01*
X186388700Y-43894720D01*
X186399500Y-43945335D01*
X186399500Y-47525500D01*
X186379815Y-47592539D01*
X186327011Y-47638294D01*
X186275501Y-47649500D01*
X186102130Y-47649500D01*
X186102123Y-47649501D01*
X186042516Y-47655908D01*
X185907671Y-47706202D01*
X185907664Y-47706206D01*
X185792455Y-47792452D01*
X185792452Y-47792455D01*
X185706206Y-47907664D01*
X185706202Y-47907671D01*
X185655908Y-48042517D01*
X185649501Y-48102116D01*
X185649501Y-48102123D01*
X185649500Y-48102135D01*
X185649500Y-49897870D01*
X185649501Y-49897876D01*
X185655908Y-49957483D01*
X185706202Y-50092328D01*
X185706206Y-50092335D01*
X185792452Y-50207544D01*
X185792455Y-50207547D01*
X185907664Y-50293793D01*
X185907671Y-50293797D01*
X186039081Y-50342810D01*
X186095015Y-50384681D01*
X186119432Y-50450145D01*
X186104580Y-50518418D01*
X186083430Y-50546673D01*
X185961503Y-50668600D01*
X185825965Y-50862169D01*
X185825964Y-50862171D01*
X185726098Y-51076335D01*
X185726094Y-51076344D01*
X185664938Y-51304586D01*
X185664936Y-51304596D01*
X185644341Y-51539999D01*
X185644341Y-51540000D01*
X185664936Y-51775403D01*
X185664938Y-51775413D01*
X185726094Y-52003655D01*
X185726096Y-52003659D01*
X185726097Y-52003663D01*
X185813221Y-52190500D01*
X185825965Y-52217830D01*
X185825967Y-52217834D01*
X185961501Y-52411395D01*
X185961506Y-52411402D01*
X186128597Y-52578493D01*
X186128603Y-52578498D01*
X186314158Y-52708425D01*
X186357783Y-52763002D01*
X186364977Y-52832500D01*
X186333454Y-52894855D01*
X186314158Y-52911575D01*
X186128597Y-53041505D01*
X185961505Y-53208597D01*
X185825965Y-53402169D01*
X185825964Y-53402171D01*
X185726098Y-53616335D01*
X185726094Y-53616344D01*
X185664938Y-53844586D01*
X185664936Y-53844596D01*
X185644341Y-54079999D01*
X185644341Y-54080000D01*
X185664936Y-54315403D01*
X185664938Y-54315413D01*
X185726094Y-54543655D01*
X185726096Y-54543659D01*
X185726097Y-54543663D01*
X185823406Y-54752342D01*
X185825965Y-54757829D01*
X185825967Y-54757834D01*
X185961501Y-54951395D01*
X185961506Y-54951402D01*
X186128597Y-55118493D01*
X186128603Y-55118498D01*
X186314158Y-55248425D01*
X186357783Y-55303002D01*
X186364977Y-55372500D01*
X186333454Y-55434855D01*
X186314158Y-55451575D01*
X186128597Y-55581505D01*
X185961505Y-55748597D01*
X185825965Y-55942169D01*
X185825964Y-55942171D01*
X185726098Y-56156335D01*
X185726094Y-56156344D01*
X185664938Y-56384586D01*
X185664936Y-56384596D01*
X185644341Y-56619999D01*
X185644341Y-56620000D01*
X185664936Y-56855403D01*
X185664938Y-56855413D01*
X185726094Y-57083655D01*
X185726096Y-57083659D01*
X185726097Y-57083663D01*
X185825965Y-57297829D01*
X185825967Y-57297834D01*
X185961501Y-57491395D01*
X185961506Y-57491402D01*
X186128597Y-57658493D01*
X186128603Y-57658498D01*
X186314158Y-57788425D01*
X186357783Y-57843002D01*
X186364977Y-57912500D01*
X186333454Y-57974855D01*
X186314158Y-57991575D01*
X186128597Y-58121505D01*
X185961505Y-58288597D01*
X185825965Y-58482169D01*
X185825964Y-58482171D01*
X185726098Y-58696335D01*
X185726094Y-58696344D01*
X185664938Y-58924586D01*
X185664936Y-58924596D01*
X185644341Y-59159999D01*
X185644341Y-59160000D01*
X185664936Y-59395403D01*
X185664938Y-59395413D01*
X185726094Y-59623655D01*
X185726096Y-59623659D01*
X185726097Y-59623663D01*
X185767451Y-59712346D01*
X185825965Y-59837829D01*
X185825967Y-59837834D01*
X185934281Y-59992521D01*
X185961505Y-60031401D01*
X186128599Y-60198495D01*
X186225384Y-60266265D01*
X186322165Y-60334032D01*
X186322167Y-60334033D01*
X186322170Y-60334035D01*
X186327898Y-60336706D01*
X186380339Y-60382872D01*
X186399500Y-60449090D01*
X186399500Y-66775500D01*
X186379815Y-66842539D01*
X186327011Y-66888294D01*
X186275501Y-66899500D01*
X186102130Y-66899500D01*
X186102123Y-66899501D01*
X186042516Y-66905908D01*
X185907671Y-66956202D01*
X185907664Y-66956206D01*
X185792455Y-67042452D01*
X185792452Y-67042455D01*
X185706206Y-67157664D01*
X185706202Y-67157671D01*
X185655908Y-67292517D01*
X185653127Y-67318390D01*
X185649501Y-67352123D01*
X185649500Y-67352135D01*
X185649500Y-69147870D01*
X185649501Y-69147876D01*
X185655908Y-69207483D01*
X185706202Y-69342328D01*
X185706206Y-69342335D01*
X185792452Y-69457544D01*
X185792455Y-69457547D01*
X185907664Y-69543793D01*
X185907671Y-69543797D01*
X186039081Y-69592810D01*
X186095015Y-69634681D01*
X186119432Y-69700145D01*
X186104580Y-69768418D01*
X186083430Y-69796673D01*
X185961503Y-69918600D01*
X185825965Y-70112169D01*
X185825964Y-70112171D01*
X185726098Y-70326335D01*
X185726094Y-70326344D01*
X185664938Y-70554586D01*
X185664936Y-70554596D01*
X185644341Y-70789999D01*
X185644341Y-70790000D01*
X185664936Y-71025403D01*
X185664938Y-71025413D01*
X185726094Y-71253655D01*
X185726096Y-71253659D01*
X185726097Y-71253663D01*
X185825965Y-71467830D01*
X185825967Y-71467834D01*
X185909629Y-71587315D01*
X185938948Y-71629187D01*
X185961501Y-71661395D01*
X185961506Y-71661402D01*
X186128597Y-71828493D01*
X186128603Y-71828498D01*
X186314158Y-71958425D01*
X186357783Y-72013002D01*
X186364977Y-72082500D01*
X186333454Y-72144855D01*
X186314158Y-72161575D01*
X186128597Y-72291505D01*
X185961505Y-72458597D01*
X185825965Y-72652169D01*
X185825964Y-72652171D01*
X185726098Y-72866335D01*
X185726094Y-72866344D01*
X185664938Y-73094586D01*
X185664936Y-73094596D01*
X185644341Y-73329999D01*
X185644341Y-73330000D01*
X185664936Y-73565403D01*
X185664938Y-73565413D01*
X185726094Y-73793655D01*
X185726096Y-73793659D01*
X185726097Y-73793663D01*
X185825965Y-74007830D01*
X185825967Y-74007834D01*
X185961501Y-74201395D01*
X185961506Y-74201402D01*
X186128597Y-74368493D01*
X186128603Y-74368498D01*
X186314158Y-74498425D01*
X186357783Y-74553002D01*
X186364977Y-74622500D01*
X186333454Y-74684855D01*
X186314158Y-74701575D01*
X186128597Y-74831505D01*
X185961505Y-74998597D01*
X185825965Y-75192169D01*
X185825964Y-75192171D01*
X185726098Y-75406335D01*
X185726094Y-75406344D01*
X185664938Y-75634586D01*
X185664936Y-75634596D01*
X185644341Y-75869999D01*
X185644341Y-75870000D01*
X185664936Y-76105403D01*
X185664938Y-76105413D01*
X185726094Y-76333655D01*
X185726096Y-76333659D01*
X185726097Y-76333663D01*
X185825965Y-76547830D01*
X185825967Y-76547834D01*
X185961501Y-76741395D01*
X185961506Y-76741402D01*
X186128597Y-76908493D01*
X186128603Y-76908498D01*
X186314158Y-77038425D01*
X186357783Y-77093002D01*
X186364977Y-77162500D01*
X186333454Y-77224855D01*
X186314158Y-77241575D01*
X186128597Y-77371505D01*
X185961505Y-77538597D01*
X185825965Y-77732169D01*
X185825964Y-77732171D01*
X185726098Y-77946335D01*
X185726094Y-77946344D01*
X185664938Y-78174586D01*
X185664936Y-78174596D01*
X185644341Y-78409999D01*
X185644341Y-78410000D01*
X185664936Y-78645403D01*
X185664938Y-78645413D01*
X185726094Y-78873655D01*
X185726096Y-78873659D01*
X185726097Y-78873663D01*
X185825965Y-79087830D01*
X185825967Y-79087834D01*
X185934281Y-79242521D01*
X185961505Y-79281401D01*
X186128599Y-79448495D01*
X186225384Y-79516265D01*
X186322165Y-79584032D01*
X186322167Y-79584033D01*
X186322170Y-79584035D01*
X186536337Y-79683903D01*
X186764592Y-79745063D01*
X186952918Y-79761539D01*
X186999999Y-79765659D01*
X187000000Y-79765659D01*
X187000001Y-79765659D01*
X187039234Y-79762226D01*
X187235408Y-79745063D01*
X187463663Y-79683903D01*
X187677830Y-79584035D01*
X187871401Y-79448495D01*
X188038495Y-79281401D01*
X188174035Y-79087830D01*
X188273903Y-78873663D01*
X188335063Y-78645408D01*
X188355659Y-78410000D01*
X188335063Y-78174592D01*
X188273903Y-77946337D01*
X188174035Y-77732171D01*
X188147166Y-77693797D01*
X188038494Y-77538597D01*
X187871402Y-77371506D01*
X187871396Y-77371501D01*
X187685842Y-77241575D01*
X187642217Y-77186998D01*
X187635023Y-77117500D01*
X187666546Y-77055145D01*
X187685842Y-77038425D01*
X187708026Y-77022891D01*
X187871401Y-76908495D01*
X188038495Y-76741401D01*
X188174035Y-76547830D01*
X188273903Y-76333663D01*
X188335063Y-76105408D01*
X188355659Y-75870000D01*
X188335063Y-75634592D01*
X188273903Y-75406337D01*
X188174035Y-75192171D01*
X188038495Y-74998599D01*
X188038494Y-74998597D01*
X187871402Y-74831506D01*
X187871396Y-74831501D01*
X187686642Y-74702135D01*
X197749500Y-74702135D01*
X197749500Y-77297870D01*
X197749501Y-77297876D01*
X197755908Y-77357483D01*
X197806202Y-77492328D01*
X197806206Y-77492335D01*
X197892452Y-77607544D01*
X197892455Y-77607547D01*
X198007664Y-77693793D01*
X198007671Y-77693797D01*
X198142517Y-77744091D01*
X198142516Y-77744091D01*
X198149444Y-77744835D01*
X198202127Y-77750500D01*
X200797872Y-77750499D01*
X200857483Y-77744091D01*
X200992331Y-77693796D01*
X201107546Y-77607546D01*
X201193796Y-77492331D01*
X201244091Y-77357483D01*
X201250500Y-77297873D01*
X201250499Y-74702128D01*
X201244091Y-74642517D01*
X201236625Y-74622500D01*
X201193797Y-74507671D01*
X201193793Y-74507664D01*
X201107547Y-74392455D01*
X201107544Y-74392452D01*
X200992335Y-74306206D01*
X200992328Y-74306202D01*
X200857482Y-74255908D01*
X200857483Y-74255908D01*
X200797883Y-74249501D01*
X200797881Y-74249500D01*
X200797873Y-74249500D01*
X200797864Y-74249500D01*
X198202129Y-74249500D01*
X198202123Y-74249501D01*
X198142516Y-74255908D01*
X198007671Y-74306202D01*
X198007664Y-74306206D01*
X197892455Y-74392452D01*
X197892452Y-74392455D01*
X197806206Y-74507664D01*
X197806202Y-74507671D01*
X197755908Y-74642517D01*
X197749559Y-74701575D01*
X197749501Y-74702123D01*
X197749500Y-74702135D01*
X187686642Y-74702135D01*
X187685842Y-74701575D01*
X187642217Y-74646998D01*
X187635023Y-74577500D01*
X187666546Y-74515145D01*
X187685842Y-74498425D01*
X187743492Y-74458058D01*
X187871401Y-74368495D01*
X188038495Y-74201401D01*
X188174035Y-74007830D01*
X188273903Y-73793663D01*
X188335063Y-73565408D01*
X188355659Y-73330000D01*
X188335063Y-73094592D01*
X188273903Y-72866337D01*
X188174035Y-72652171D01*
X188038495Y-72458599D01*
X188038494Y-72458597D01*
X187871402Y-72291506D01*
X187871396Y-72291501D01*
X187685842Y-72161575D01*
X187642217Y-72106998D01*
X187635023Y-72037500D01*
X187666546Y-71975145D01*
X187685842Y-71958425D01*
X187750978Y-71912816D01*
X187871401Y-71828495D01*
X188038495Y-71661401D01*
X188174035Y-71467830D01*
X188273903Y-71253663D01*
X188335063Y-71025408D01*
X188355659Y-70790000D01*
X188335063Y-70554592D01*
X188278158Y-70342216D01*
X188273905Y-70326344D01*
X188273904Y-70326343D01*
X188273903Y-70326337D01*
X188174035Y-70112171D01*
X188038495Y-69918599D01*
X187916567Y-69796671D01*
X187883084Y-69735351D01*
X187888068Y-69665659D01*
X187929939Y-69609725D01*
X187960915Y-69592810D01*
X188092331Y-69543796D01*
X188207546Y-69457546D01*
X188293796Y-69342331D01*
X188344091Y-69207483D01*
X188350500Y-69147873D01*
X188350499Y-67499995D01*
X197744592Y-67499995D01*
X197744592Y-67500004D01*
X197764196Y-67761620D01*
X197764197Y-67761625D01*
X197822576Y-68017402D01*
X197822578Y-68017411D01*
X197822580Y-68017416D01*
X197918432Y-68261643D01*
X198049614Y-68488857D01*
X198057881Y-68499223D01*
X198213198Y-68693985D01*
X198297248Y-68771971D01*
X198405521Y-68872433D01*
X198622296Y-69020228D01*
X198622301Y-69020230D01*
X198622302Y-69020231D01*
X198622303Y-69020232D01*
X198731006Y-69072580D01*
X198858673Y-69134061D01*
X198858674Y-69134061D01*
X198858677Y-69134063D01*
X199109385Y-69211396D01*
X199368818Y-69250500D01*
X199631182Y-69250500D01*
X199890615Y-69211396D01*
X200141323Y-69134063D01*
X200364005Y-69026825D01*
X200377696Y-69020232D01*
X200377696Y-69020231D01*
X200377704Y-69020228D01*
X200594479Y-68872433D01*
X200786805Y-68693981D01*
X200950386Y-68488857D01*
X201081568Y-68261643D01*
X201177420Y-68017416D01*
X201235802Y-67761630D01*
X201240760Y-67695466D01*
X201255408Y-67500004D01*
X201255408Y-67499995D01*
X201235803Y-67238379D01*
X201235802Y-67238374D01*
X201235802Y-67238370D01*
X201177420Y-66982584D01*
X201081568Y-66738357D01*
X200950386Y-66511143D01*
X200786805Y-66306019D01*
X200786804Y-66306018D01*
X200786801Y-66306014D01*
X200594479Y-66127567D01*
X200544186Y-66093278D01*
X200377704Y-65979772D01*
X200377700Y-65979770D01*
X200377697Y-65979768D01*
X200377696Y-65979767D01*
X200141325Y-65865938D01*
X200141327Y-65865938D01*
X199890623Y-65788606D01*
X199890619Y-65788605D01*
X199890615Y-65788604D01*
X199765823Y-65769794D01*
X199631187Y-65749500D01*
X199631182Y-65749500D01*
X199368818Y-65749500D01*
X199368812Y-65749500D01*
X199207247Y-65773853D01*
X199109385Y-65788604D01*
X199109382Y-65788605D01*
X199109376Y-65788606D01*
X198858673Y-65865938D01*
X198622303Y-65979767D01*
X198622302Y-65979768D01*
X198622296Y-65979771D01*
X198622296Y-65979772D01*
X198611219Y-65987324D01*
X198405520Y-66127567D01*
X198213198Y-66306014D01*
X198049614Y-66511143D01*
X197918432Y-66738356D01*
X197822582Y-66982578D01*
X197822576Y-66982597D01*
X197764197Y-67238374D01*
X197764196Y-67238379D01*
X197744592Y-67499995D01*
X188350499Y-67499995D01*
X188350499Y-67352128D01*
X188344091Y-67292517D01*
X188323895Y-67238370D01*
X188293797Y-67157671D01*
X188293793Y-67157664D01*
X188207547Y-67042455D01*
X188207544Y-67042452D01*
X188092335Y-66956206D01*
X188092328Y-66956202D01*
X187957482Y-66905908D01*
X187957483Y-66905908D01*
X187897883Y-66899501D01*
X187897881Y-66899500D01*
X187897873Y-66899500D01*
X187897865Y-66899500D01*
X187724500Y-66899500D01*
X187657461Y-66879815D01*
X187611706Y-66827011D01*
X187600500Y-66775500D01*
X187600500Y-62499995D01*
X197745093Y-62499995D01*
X197745093Y-62500004D01*
X197764692Y-62761545D01*
X197764693Y-62761550D01*
X197823058Y-63017270D01*
X197918883Y-63261426D01*
X197918882Y-63261426D01*
X198050027Y-63488573D01*
X198097874Y-63548571D01*
X198898958Y-62747488D01*
X198923978Y-62807890D01*
X198995112Y-62914351D01*
X199085649Y-63004888D01*
X199192110Y-63076022D01*
X199252510Y-63101041D01*
X198450830Y-63902720D01*
X198622546Y-64019793D01*
X198622550Y-64019795D01*
X198858854Y-64133594D01*
X198858858Y-64133595D01*
X199109494Y-64210907D01*
X199109500Y-64210909D01*
X199368848Y-64249999D01*
X199368857Y-64250000D01*
X199631143Y-64250000D01*
X199631151Y-64249999D01*
X199890499Y-64210909D01*
X199890505Y-64210907D01*
X200141143Y-64133595D01*
X200377445Y-64019798D01*
X200377447Y-64019797D01*
X200549168Y-63902720D01*
X199747488Y-63101041D01*
X199807890Y-63076022D01*
X199914351Y-63004888D01*
X200004888Y-62914351D01*
X200076022Y-62807890D01*
X200101041Y-62747488D01*
X200902125Y-63548572D01*
X200949971Y-63488573D01*
X201081116Y-63261426D01*
X201176941Y-63017270D01*
X201235306Y-62761550D01*
X201235307Y-62761545D01*
X201254907Y-62500004D01*
X201254907Y-62499995D01*
X201235307Y-62238454D01*
X201235306Y-62238449D01*
X201176941Y-61982729D01*
X201081116Y-61738573D01*
X201081117Y-61738573D01*
X200949972Y-61511426D01*
X200902124Y-61451427D01*
X200101041Y-62252510D01*
X200076022Y-62192110D01*
X200004888Y-62085649D01*
X199914351Y-61995112D01*
X199807890Y-61923978D01*
X199747488Y-61898958D01*
X200549168Y-61097278D01*
X200377454Y-60980206D01*
X200377445Y-60980201D01*
X200141142Y-60866404D01*
X200141144Y-60866404D01*
X199890505Y-60789092D01*
X199890499Y-60789090D01*
X199631151Y-60750000D01*
X199368848Y-60750000D01*
X199109500Y-60789090D01*
X199109494Y-60789092D01*
X198858858Y-60866404D01*
X198858854Y-60866405D01*
X198622547Y-60980205D01*
X198622539Y-60980210D01*
X198450830Y-61097277D01*
X199252511Y-61898958D01*
X199192110Y-61923978D01*
X199085649Y-61995112D01*
X198995112Y-62085649D01*
X198923978Y-62192110D01*
X198898958Y-62252510D01*
X198097874Y-61451427D01*
X198050028Y-61511425D01*
X197918883Y-61738573D01*
X197823058Y-61982729D01*
X197764693Y-62238449D01*
X197764692Y-62238454D01*
X197745093Y-62499995D01*
X187600500Y-62499995D01*
X187600500Y-60449090D01*
X187620185Y-60382051D01*
X187672101Y-60336706D01*
X187677830Y-60334035D01*
X187871401Y-60198495D01*
X188038495Y-60031401D01*
X188174035Y-59837830D01*
X188273903Y-59623663D01*
X188335063Y-59395408D01*
X188355659Y-59160000D01*
X188353773Y-59138449D01*
X188345617Y-59045220D01*
X188335063Y-58924592D01*
X188279488Y-58717182D01*
X188273905Y-58696344D01*
X188273904Y-58696343D01*
X188273903Y-58696337D01*
X188174035Y-58482171D01*
X188163565Y-58467217D01*
X188038494Y-58288597D01*
X187871402Y-58121506D01*
X187871396Y-58121501D01*
X187685842Y-57991575D01*
X187642217Y-57936998D01*
X187635023Y-57867500D01*
X187666546Y-57805145D01*
X187685842Y-57788425D01*
X187780205Y-57722351D01*
X187871401Y-57658495D01*
X188029901Y-57499995D01*
X197744592Y-57499995D01*
X197744592Y-57500004D01*
X197764196Y-57761620D01*
X197764197Y-57761625D01*
X197822576Y-58017402D01*
X197822578Y-58017411D01*
X197822580Y-58017416D01*
X197918432Y-58261643D01*
X198049614Y-58488857D01*
X198136821Y-58598211D01*
X198213198Y-58693985D01*
X198353494Y-58824159D01*
X198405521Y-58872433D01*
X198622296Y-59020228D01*
X198622301Y-59020230D01*
X198622302Y-59020231D01*
X198622303Y-59020232D01*
X198747843Y-59080688D01*
X198858673Y-59134061D01*
X198858674Y-59134061D01*
X198858677Y-59134063D01*
X199109385Y-59211396D01*
X199368818Y-59250500D01*
X199631182Y-59250500D01*
X199890615Y-59211396D01*
X200141323Y-59134063D01*
X200377704Y-59020228D01*
X200594479Y-58872433D01*
X200784047Y-58696540D01*
X200786801Y-58693985D01*
X200786801Y-58693983D01*
X200786805Y-58693981D01*
X200950386Y-58488857D01*
X201081568Y-58261643D01*
X201177420Y-58017416D01*
X201235802Y-57761630D01*
X201237599Y-57737648D01*
X201255408Y-57500004D01*
X201255408Y-57499995D01*
X201235803Y-57238379D01*
X201235802Y-57238374D01*
X201235802Y-57238370D01*
X201177420Y-56982584D01*
X201081568Y-56738357D01*
X200950386Y-56511143D01*
X200786805Y-56306019D01*
X200786804Y-56306018D01*
X200786801Y-56306014D01*
X200594479Y-56127567D01*
X200561391Y-56105008D01*
X200377704Y-55979772D01*
X200377700Y-55979770D01*
X200377697Y-55979768D01*
X200377696Y-55979767D01*
X200141325Y-55865938D01*
X200141327Y-55865938D01*
X199890623Y-55788606D01*
X199890619Y-55788605D01*
X199890615Y-55788604D01*
X199765823Y-55769794D01*
X199631187Y-55749500D01*
X199631182Y-55749500D01*
X199368818Y-55749500D01*
X199368812Y-55749500D01*
X199207247Y-55773853D01*
X199109385Y-55788604D01*
X199109382Y-55788605D01*
X199109376Y-55788606D01*
X198858673Y-55865938D01*
X198622303Y-55979767D01*
X198622302Y-55979768D01*
X198405520Y-56127567D01*
X198213198Y-56306014D01*
X198049614Y-56511143D01*
X197918432Y-56738356D01*
X197822582Y-56982578D01*
X197822576Y-56982597D01*
X197764197Y-57238374D01*
X197764196Y-57238379D01*
X197744592Y-57499995D01*
X188029901Y-57499995D01*
X188038495Y-57491401D01*
X188174035Y-57297830D01*
X188273903Y-57083663D01*
X188335063Y-56855408D01*
X188355659Y-56620000D01*
X188335063Y-56384592D01*
X188273903Y-56156337D01*
X188174035Y-55942171D01*
X188163562Y-55927213D01*
X188038494Y-55748597D01*
X187871402Y-55581506D01*
X187871396Y-55581501D01*
X187685842Y-55451575D01*
X187642217Y-55396998D01*
X187635023Y-55327500D01*
X187666546Y-55265145D01*
X187685842Y-55248425D01*
X187780205Y-55182351D01*
X187871401Y-55118495D01*
X188038495Y-54951401D01*
X188174035Y-54757830D01*
X188273903Y-54543663D01*
X188335063Y-54315408D01*
X188355659Y-54080000D01*
X188335063Y-53844592D01*
X188273903Y-53616337D01*
X188174035Y-53402171D01*
X188163565Y-53387217D01*
X188038494Y-53208597D01*
X187871402Y-53041506D01*
X187871396Y-53041501D01*
X187685842Y-52911575D01*
X187642217Y-52856998D01*
X187635023Y-52787500D01*
X187666546Y-52725145D01*
X187685842Y-52708425D01*
X187780205Y-52642351D01*
X187871401Y-52578495D01*
X187949901Y-52499995D01*
X197744592Y-52499995D01*
X197744592Y-52500004D01*
X197764196Y-52761620D01*
X197764197Y-52761625D01*
X197822576Y-53017402D01*
X197822578Y-53017411D01*
X197822580Y-53017416D01*
X197918432Y-53261643D01*
X198049614Y-53488857D01*
X198155132Y-53621172D01*
X198213198Y-53693985D01*
X198313398Y-53786956D01*
X198405521Y-53872433D01*
X198622296Y-54020228D01*
X198622301Y-54020230D01*
X198622302Y-54020231D01*
X198622303Y-54020232D01*
X198736478Y-54075215D01*
X198858673Y-54134061D01*
X198858674Y-54134061D01*
X198858677Y-54134063D01*
X199109385Y-54211396D01*
X199368818Y-54250500D01*
X199631182Y-54250500D01*
X199890615Y-54211396D01*
X200141323Y-54134063D01*
X200377704Y-54020228D01*
X200594479Y-53872433D01*
X200780841Y-53699515D01*
X200786801Y-53693985D01*
X200786801Y-53693983D01*
X200786805Y-53693981D01*
X200950386Y-53488857D01*
X201081568Y-53261643D01*
X201177420Y-53017416D01*
X201235802Y-52761630D01*
X201235803Y-52761620D01*
X201255408Y-52500004D01*
X201255408Y-52499995D01*
X201235803Y-52238379D01*
X201235802Y-52238374D01*
X201235802Y-52238370D01*
X201177420Y-51982584D01*
X201081568Y-51738357D01*
X200950386Y-51511143D01*
X200786805Y-51306019D01*
X200786804Y-51306018D01*
X200786801Y-51306014D01*
X200594479Y-51127567D01*
X200565020Y-51107482D01*
X200377704Y-50979772D01*
X200377700Y-50979770D01*
X200377697Y-50979768D01*
X200377696Y-50979767D01*
X200141325Y-50865938D01*
X200141327Y-50865938D01*
X199890623Y-50788606D01*
X199890619Y-50788605D01*
X199890615Y-50788604D01*
X199765823Y-50769794D01*
X199631187Y-50749500D01*
X199631182Y-50749500D01*
X199368818Y-50749500D01*
X199368812Y-50749500D01*
X199207247Y-50773853D01*
X199109385Y-50788604D01*
X199109382Y-50788605D01*
X199109376Y-50788606D01*
X198858673Y-50865938D01*
X198622303Y-50979767D01*
X198622302Y-50979768D01*
X198405520Y-51127567D01*
X198213198Y-51306014D01*
X198049614Y-51511143D01*
X197918432Y-51738356D01*
X197822582Y-51982578D01*
X197822576Y-51982597D01*
X197764197Y-52238374D01*
X197764196Y-52238379D01*
X197744592Y-52499995D01*
X187949901Y-52499995D01*
X188038495Y-52411401D01*
X188174035Y-52217830D01*
X188273903Y-52003663D01*
X188335063Y-51775408D01*
X188355659Y-51540000D01*
X188335063Y-51304592D01*
X188273903Y-51076337D01*
X188174035Y-50862171D01*
X188163561Y-50847213D01*
X188038496Y-50668600D01*
X188038495Y-50668599D01*
X187916567Y-50546671D01*
X187883084Y-50485351D01*
X187888068Y-50415659D01*
X187929939Y-50359725D01*
X187960915Y-50342810D01*
X188092331Y-50293796D01*
X188207546Y-50207546D01*
X188293796Y-50092331D01*
X188344091Y-49957483D01*
X188350500Y-49897873D01*
X188350499Y-48102128D01*
X188344091Y-48042517D01*
X188293796Y-47907669D01*
X188293795Y-47907668D01*
X188293793Y-47907664D01*
X188207547Y-47792455D01*
X188207544Y-47792452D01*
X188092335Y-47706206D01*
X188092328Y-47706202D01*
X187957482Y-47655908D01*
X187957483Y-47655908D01*
X187897883Y-47649501D01*
X187897881Y-47649500D01*
X187897873Y-47649500D01*
X187897865Y-47649500D01*
X187724500Y-47649500D01*
X187657461Y-47629815D01*
X187611706Y-47577011D01*
X187600500Y-47525500D01*
X187600500Y-47499995D01*
X197744592Y-47499995D01*
X197744592Y-47500004D01*
X197764196Y-47761620D01*
X197764197Y-47761625D01*
X197822576Y-48017402D01*
X197822578Y-48017411D01*
X197822580Y-48017416D01*
X197918432Y-48261643D01*
X198049614Y-48488857D01*
X198172102Y-48642452D01*
X198213198Y-48693985D01*
X198394753Y-48862441D01*
X198405521Y-48872433D01*
X198622296Y-49020228D01*
X198622301Y-49020230D01*
X198622302Y-49020231D01*
X198622303Y-49020232D01*
X198747843Y-49080688D01*
X198858673Y-49134061D01*
X198858674Y-49134061D01*
X198858677Y-49134063D01*
X199109385Y-49211396D01*
X199368818Y-49250500D01*
X199631182Y-49250500D01*
X199890615Y-49211396D01*
X200141323Y-49134063D01*
X200377704Y-49020228D01*
X200594479Y-48872433D01*
X200786805Y-48693981D01*
X200950386Y-48488857D01*
X201081568Y-48261643D01*
X201177420Y-48017416D01*
X201235802Y-47761630D01*
X201235803Y-47761620D01*
X201255408Y-47500004D01*
X201255408Y-47499995D01*
X201235803Y-47238379D01*
X201235802Y-47238374D01*
X201235802Y-47238370D01*
X201177420Y-46982584D01*
X201081568Y-46738357D01*
X200950386Y-46511143D01*
X200786805Y-46306019D01*
X200786804Y-46306018D01*
X200786801Y-46306014D01*
X200594479Y-46127567D01*
X200377704Y-45979772D01*
X200377700Y-45979770D01*
X200377697Y-45979768D01*
X200377696Y-45979767D01*
X200141325Y-45865938D01*
X200141327Y-45865938D01*
X199890623Y-45788606D01*
X199890619Y-45788605D01*
X199890615Y-45788604D01*
X199765823Y-45769794D01*
X199631187Y-45749500D01*
X199631182Y-45749500D01*
X199368818Y-45749500D01*
X199368812Y-45749500D01*
X199207247Y-45773853D01*
X199109385Y-45788604D01*
X199109382Y-45788605D01*
X199109376Y-45788606D01*
X198858673Y-45865938D01*
X198622303Y-45979767D01*
X198622302Y-45979768D01*
X198405520Y-46127567D01*
X198213198Y-46306014D01*
X198049614Y-46511143D01*
X197918432Y-46738356D01*
X197822582Y-46982578D01*
X197822576Y-46982597D01*
X197764197Y-47238374D01*
X197764196Y-47238379D01*
X197744592Y-47499995D01*
X187600500Y-47499995D01*
X187600500Y-42499995D01*
X197744592Y-42499995D01*
X197744592Y-42500004D01*
X197764196Y-42761620D01*
X197764197Y-42761625D01*
X197822576Y-43017402D01*
X197822578Y-43017411D01*
X197822580Y-43017416D01*
X197918432Y-43261643D01*
X198049614Y-43488857D01*
X198181736Y-43654533D01*
X198213198Y-43693985D01*
X198372242Y-43841555D01*
X198405521Y-43872433D01*
X198622296Y-44020228D01*
X198622301Y-44020230D01*
X198622302Y-44020231D01*
X198622303Y-44020232D01*
X198747843Y-44080688D01*
X198858673Y-44134061D01*
X198858674Y-44134061D01*
X198858677Y-44134063D01*
X199109385Y-44211396D01*
X199368818Y-44250500D01*
X199631182Y-44250500D01*
X199890615Y-44211396D01*
X200141323Y-44134063D01*
X200377704Y-44020228D01*
X200594479Y-43872433D01*
X200786805Y-43693981D01*
X200950386Y-43488857D01*
X201081568Y-43261643D01*
X201177420Y-43017416D01*
X201235802Y-42761630D01*
X201235803Y-42761620D01*
X201255408Y-42500004D01*
X201255408Y-42499995D01*
X201235803Y-42238379D01*
X201235802Y-42238374D01*
X201235802Y-42238370D01*
X201177420Y-41982584D01*
X201081568Y-41738357D01*
X200950386Y-41511143D01*
X200786805Y-41306019D01*
X200786804Y-41306018D01*
X200786801Y-41306014D01*
X200594479Y-41127567D01*
X200377704Y-40979772D01*
X200377700Y-40979770D01*
X200377697Y-40979768D01*
X200377696Y-40979767D01*
X200141325Y-40865938D01*
X200141327Y-40865938D01*
X199890623Y-40788606D01*
X199890619Y-40788605D01*
X199890615Y-40788604D01*
X199765823Y-40769794D01*
X199631187Y-40749500D01*
X199631182Y-40749500D01*
X199368818Y-40749500D01*
X199368812Y-40749500D01*
X199207247Y-40773853D01*
X199109385Y-40788604D01*
X199109382Y-40788605D01*
X199109376Y-40788606D01*
X198858673Y-40865938D01*
X198622303Y-40979767D01*
X198622302Y-40979768D01*
X198405520Y-41127567D01*
X198213198Y-41306014D01*
X198049614Y-41511143D01*
X197918432Y-41738356D01*
X197822582Y-41982578D01*
X197822576Y-41982597D01*
X197764197Y-42238374D01*
X197764196Y-42238379D01*
X197744592Y-42499995D01*
X187600500Y-42499995D01*
X187600500Y-38712645D01*
X187600500Y-38712643D01*
X187559577Y-38559916D01*
X187559577Y-38559915D01*
X187515745Y-38483996D01*
X187480520Y-38422984D01*
X187368716Y-38311180D01*
X187368715Y-38311179D01*
X187364385Y-38306849D01*
X187364374Y-38306839D01*
X186557530Y-37499995D01*
X197744592Y-37499995D01*
X197744592Y-37500004D01*
X197764196Y-37761620D01*
X197764197Y-37761625D01*
X197822576Y-38017402D01*
X197822578Y-38017411D01*
X197822580Y-38017416D01*
X197918432Y-38261643D01*
X198049614Y-38488857D01*
X198106281Y-38559915D01*
X198213198Y-38693985D01*
X198394753Y-38862441D01*
X198405521Y-38872433D01*
X198622296Y-39020228D01*
X198622301Y-39020230D01*
X198622302Y-39020231D01*
X198622303Y-39020232D01*
X198747843Y-39080688D01*
X198858673Y-39134061D01*
X198858674Y-39134061D01*
X198858677Y-39134063D01*
X199109385Y-39211396D01*
X199368818Y-39250500D01*
X199631182Y-39250500D01*
X199890615Y-39211396D01*
X200141323Y-39134063D01*
X200377704Y-39020228D01*
X200594479Y-38872433D01*
X200786805Y-38693981D01*
X200950386Y-38488857D01*
X201081568Y-38261643D01*
X201177420Y-38017416D01*
X201235802Y-37761630D01*
X201255408Y-37500000D01*
X201238868Y-37279290D01*
X201235803Y-37238379D01*
X201235802Y-37238374D01*
X201235802Y-37238370D01*
X201177420Y-36982584D01*
X201081568Y-36738357D01*
X200950386Y-36511143D01*
X200786805Y-36306019D01*
X200786804Y-36306018D01*
X200786801Y-36306014D01*
X200594479Y-36127567D01*
X200377704Y-35979772D01*
X200377700Y-35979770D01*
X200377697Y-35979768D01*
X200377696Y-35979767D01*
X200141325Y-35865938D01*
X200141327Y-35865938D01*
X199890623Y-35788606D01*
X199890619Y-35788605D01*
X199890615Y-35788604D01*
X199765823Y-35769794D01*
X199631187Y-35749500D01*
X199631182Y-35749500D01*
X199368818Y-35749500D01*
X199368812Y-35749500D01*
X199207247Y-35773853D01*
X199109385Y-35788604D01*
X199109382Y-35788605D01*
X199109376Y-35788606D01*
X198858673Y-35865938D01*
X198622303Y-35979767D01*
X198622302Y-35979768D01*
X198405520Y-36127567D01*
X198213198Y-36306014D01*
X198049614Y-36511143D01*
X197918432Y-36738356D01*
X197822582Y-36982578D01*
X197822576Y-36982597D01*
X197764197Y-37238374D01*
X197764196Y-37238379D01*
X197744592Y-37499995D01*
X186557530Y-37499995D01*
X185881042Y-36823507D01*
X185847557Y-36762184D01*
X185852541Y-36692492D01*
X185881042Y-36648145D01*
X186000045Y-36529141D01*
X186000047Y-36529139D01*
X186130568Y-36342734D01*
X186226739Y-36136496D01*
X186285635Y-35916692D01*
X186305468Y-35690000D01*
X186285635Y-35463308D01*
X186226739Y-35243504D01*
X186130568Y-35037266D01*
X186000047Y-34850861D01*
X186000045Y-34850858D01*
X185839141Y-34689954D01*
X185652734Y-34559432D01*
X185652732Y-34559431D01*
X185446497Y-34463261D01*
X185446488Y-34463258D01*
X185226697Y-34404366D01*
X185226693Y-34404365D01*
X185226692Y-34404365D01*
X185226691Y-34404364D01*
X185226686Y-34404364D01*
X185000002Y-34384532D01*
X184999998Y-34384532D01*
X184773313Y-34404364D01*
X184773302Y-34404366D01*
X184553511Y-34463258D01*
X184553502Y-34463261D01*
X184347267Y-34559431D01*
X184255622Y-34623601D01*
X184189416Y-34645928D01*
X184121649Y-34628916D01*
X184073837Y-34577968D01*
X184060500Y-34522025D01*
X184060500Y-32341343D01*
X184080185Y-32274304D01*
X184125483Y-32232288D01*
X184228626Y-32176470D01*
X184411784Y-32033913D01*
X184420511Y-32024432D01*
X184480394Y-31988441D01*
X184550232Y-31990538D01*
X184607850Y-32030060D01*
X184627924Y-32065080D01*
X184656645Y-32142086D01*
X184656649Y-32142093D01*
X184742809Y-32257187D01*
X184742812Y-32257190D01*
X184857906Y-32343350D01*
X184857913Y-32343354D01*
X184992620Y-32393596D01*
X184992627Y-32393598D01*
X185052155Y-32399999D01*
X185052172Y-32400000D01*
X185750000Y-32400000D01*
X185750000Y-31375277D01*
X185826306Y-31419333D01*
X185940756Y-31450000D01*
X186059244Y-31450000D01*
X186173694Y-31419333D01*
X186250000Y-31375277D01*
X186250000Y-32400000D01*
X186947828Y-32400000D01*
X186947844Y-32399999D01*
X187007372Y-32393598D01*
X187007379Y-32393596D01*
X187142086Y-32343354D01*
X187142093Y-32343350D01*
X187257187Y-32257190D01*
X187257190Y-32257187D01*
X187343350Y-32142093D01*
X187343354Y-32142086D01*
X187393596Y-32007379D01*
X187393598Y-32007372D01*
X187399999Y-31947844D01*
X187400000Y-31947827D01*
X187400000Y-31250000D01*
X186375278Y-31250000D01*
X186402913Y-31202135D01*
X197749500Y-31202135D01*
X197749500Y-33797870D01*
X197749501Y-33797876D01*
X197755908Y-33857483D01*
X197806202Y-33992328D01*
X197806206Y-33992335D01*
X197892452Y-34107544D01*
X197892455Y-34107547D01*
X198007664Y-34193793D01*
X198007671Y-34193797D01*
X198142517Y-34244091D01*
X198142516Y-34244091D01*
X198149444Y-34244835D01*
X198202127Y-34250500D01*
X200797872Y-34250499D01*
X200857483Y-34244091D01*
X200992331Y-34193796D01*
X201107546Y-34107546D01*
X201193796Y-33992331D01*
X201244091Y-33857483D01*
X201250500Y-33797873D01*
X201250499Y-31202128D01*
X201244091Y-31142517D01*
X201213032Y-31059244D01*
X201193797Y-31007671D01*
X201193793Y-31007664D01*
X201107547Y-30892455D01*
X201107544Y-30892452D01*
X200992335Y-30806206D01*
X200992328Y-30806202D01*
X200857482Y-30755908D01*
X200857483Y-30755908D01*
X200797883Y-30749501D01*
X200797881Y-30749500D01*
X200797873Y-30749500D01*
X200797864Y-30749500D01*
X198202129Y-30749500D01*
X198202123Y-30749501D01*
X198142516Y-30755908D01*
X198007671Y-30806202D01*
X198007664Y-30806206D01*
X197892455Y-30892452D01*
X197892452Y-30892455D01*
X197806206Y-31007664D01*
X197806202Y-31007671D01*
X197755908Y-31142517D01*
X197749501Y-31202116D01*
X197749501Y-31202123D01*
X197749500Y-31202135D01*
X186402913Y-31202135D01*
X186419333Y-31173694D01*
X186450000Y-31059244D01*
X186450000Y-30940756D01*
X186419333Y-30826306D01*
X186375278Y-30750000D01*
X187400000Y-30750000D01*
X187400000Y-30052172D01*
X187399999Y-30052155D01*
X187393598Y-29992627D01*
X187393596Y-29992620D01*
X187343354Y-29857913D01*
X187343350Y-29857906D01*
X187257190Y-29742812D01*
X187257187Y-29742809D01*
X187142093Y-29656649D01*
X187142086Y-29656645D01*
X187007379Y-29606403D01*
X187007372Y-29606401D01*
X186947844Y-29600000D01*
X186250000Y-29600000D01*
X186250000Y-30624722D01*
X186173694Y-30580667D01*
X186059244Y-30550000D01*
X185940756Y-30550000D01*
X185826306Y-30580667D01*
X185750000Y-30624722D01*
X185750000Y-29600000D01*
X185052155Y-29600000D01*
X184992627Y-29606401D01*
X184992620Y-29606403D01*
X184857913Y-29656645D01*
X184857906Y-29656649D01*
X184742812Y-29742809D01*
X184742809Y-29742812D01*
X184656649Y-29857906D01*
X184656646Y-29857911D01*
X184627924Y-29934920D01*
X184586052Y-29990853D01*
X184520588Y-30015270D01*
X184452315Y-30000418D01*
X184420514Y-29975571D01*
X184411784Y-29966087D01*
X184411779Y-29966083D01*
X184411777Y-29966081D01*
X184228634Y-29823535D01*
X184228628Y-29823531D01*
X184024504Y-29713064D01*
X184024495Y-29713061D01*
X183804984Y-29637702D01*
X183617404Y-29606401D01*
X183576049Y-29599500D01*
X183343951Y-29599500D01*
X183302596Y-29606401D01*
X183115015Y-29637702D01*
X182895504Y-29713061D01*
X182895495Y-29713064D01*
X182691371Y-29823531D01*
X182691365Y-29823535D01*
X182508222Y-29966081D01*
X182508219Y-29966084D01*
X182508216Y-29966086D01*
X182508216Y-29966087D01*
X182483791Y-29992620D01*
X182351016Y-30136852D01*
X182224075Y-30331151D01*
X182130842Y-30543699D01*
X182073866Y-30768691D01*
X182073864Y-30768702D01*
X182054700Y-30999993D01*
X108500500Y-30999993D01*
X108500500Y-27124500D01*
X108520185Y-27057461D01*
X108572989Y-27011706D01*
X108624500Y-27000500D01*
X206375500Y-27000500D01*
X206442539Y-27020185D01*
G37*
%TD.AperFunction*%
%TD*%
M02*
